<svg xmlns="http://www.w3.org/2000/svg" width="1024" height="1024" preserveAspectRatio="none" style="display:block" viewBox="0 0 2048 2048"><defs><linearGradient id="a" x1="1045" x2="1021" y1="505" y2="543" gradientUnits="userSpaceOnUse"><stop class="stop0" offset="0" stop-color="#9a7d24"/><stop class="stop1" offset="1" stop-color="#c8a73d"/></linearGradient></defs><path fill="#f2f0ea" d="M841 382c12 3 39 24 51 32 20 14 46 28 63 43l-36 11c-11 23-34 63-47 84l-2-2-4 9v3l17 25 10 16 3 6c-16 9-69 20-77 26 1 5 4 21 6 25l53 49c14 12 31 26 43 38l3 15q14 66 25 133l45 12 2 3c1 10 4 41 9 49 9 4 37 10 42 16v5l4 33c4 6 25 10 33 12v22q-1 9 2 16l-1 1q-2-2-4-1l-58 35-12 8c-14 11-45 26-62 37l-1-11 1 22 2 127v166l1 98c-2 27-5 65-5 91l-1 3-1 4c-25 8-75 20-99 26l-48 11-74 19-3-1 20 44q33 75 51 155c2 6 7 28 7 34l2 4H454c-21-18-55-53-75-73-34-35-73-72-106-107v-2l38-108 6-18c-9-10-94-55-96-62l1-1c5-11 31-34 35-44l-16 12-60-79 6-5c9-10 37-34 47-42l-38-51 42-29-28-56 12-6 45-26q-6-19-16-37l32-4 60-269 17-78c13-59 12-51 50-99l51-63 53-66c13-16 25-32 45-40 8 0 26-2 33-5 35-4 65-21 81-52 6-12 11-27 23-35 15-10 37-9 54-18 15-7 22-16 35-25l11-51c12-3 15-2 25-9 8 8 11 11 20 17 0-9-6-17 0-22"/><path fill="#c8a44e" d="m389 1334 11-5 9 21 34 76 2 4 61 131 25 55 3 6c10 2 33 13 43 17l97 40c9 3 39 17 47 19l20 44q33 75 51 155c2 6 7 28 7 34l2 4H454c-21-18-55-53-75-73-34-35-73-72-106-107v-2l38-108 6-18c-9-10-94-55-96-62l1-1c5-11 31-34 35-44l-16 12-60-79 6-5c9-10 37-34 47-42l27-12c17-7 117-59 128-60"/><path fill="#8a6a3a" d="M534 1622c10 2 33 13 43 17l97 40c9 3 39 17 47 19l20 44q33 75 51 155c2 6 7 28 7 34l2 4H454l6-27 13-50 44-172c3-10 14-58 17-63z"/><path fill="#e0b84e" d="M534 1622c10 2 33 13 43 17l97 40c9 3 39 17 47 19l20 44q33 75 51 155c2 6 7 28 7 34l-31-32c-64-64-123-137-179-208l-55-68zm-145-288 11-5 9 21c-5 11-35 41-44 51l-85 94-23 25-16 12-60-79 6-5c9-10 37-34 47-42l27-12c17-7 117-59 128-60"/><path fill="#8a6a3a" d="m234 1406 27-12c17-7 117-59 128-60l-115 66c-11 6-78 46-87 48 9-10 37-34 47-42"/><path fill="#e0b84e" d="M318 1626c45-1 100 2 147 2 15 2 35 0 49 2l-167 85-47 24-27 14 38-108 6-18z"/><path fill="#8a6a3a" d="m409 1350 34 76-27 16-142 89-41 26-11 7c5-11 31-34 35-44l23-25 85-94c9-10 39-40 44-51"/><path fill="#c8a44e" d="m994 907 2 3c1 10 4 41 9 49 9 4 37 10 42 16v5l4 33c4 6 25 10 33 12v22q-1 9 2 16l-1 1q-2-2-4-1l-58 35-12 8c-14 11-45 26-62 37l-1-11v-40l-1-7c-23 24-64 62-89 83l-2 2-36-1c-5-1-20-4-24 0v-2h-2l-22 22h-3l-8-26-24 23v-1l-3-36v-2l-2-27c-2-18-2-40-3-58 6-2 22-12 28-15l43-25 173-101z"/><path fill="#8a6a3a" d="M1005 959c9 4 37 10 42 16v5l4 33c4 6 25 10 33 12v22q-1 9 2 16l-1 1q-2-2-4-1l-58 35-12 8c-14 11-45 26-62 37l-1-11v-40l-1-7-31-2c34-31 73-68 109-96q-12-13-20-28"/><path fill="#c8a44e" d="M952 1085c18-15 84-100 95-105l4 33c-6 4-47 76-53 88zm103-65 15 30 3-1 11-2q-1 9 2 16l-1 1q-2-2-4-1l-58 35-12 8 3-6a880 880 0 0 0 41-80"/><path fill="#8a6a3a" d="m994 907 2 3c-59 47-112 100-170 147l-62 41-32 22c-2-18-2-40-3-58 6-2 22-12 28-15l43-25 173-101zm0 53 3-2-2 4-18 18q-85 85-168 171-9 7-15 16l-22 22h-3l-8-26-24 23v-1l-3-36v-2l61-42z"/><path fill="#e0b84e" d="m825 660 53 49c14 12 31 26 43 38l3 15q14 66 25 133l45 12-21 14-173 101-43 25c-6 3-22 13-28 15-3-13-1-33-3-47l21-11 52-28q14-78 24-156 7-38 11-75l-3-16-2-17c-1-16-5-37-4-52"/><path fill="#c8a44e" d="m917 759 2 1v9l-9 81-8 72 47-27 45 12-21 14-173 101-43 25c-6 3-22 13-28 15-3-13-1-33-3-47l21-11 52-28 74-40 15-56z"/><path fill="#8a6a3a" d="M841 382c12 3 39 24 51 32 20 14 46 28 63 43l-36 11c-11 23-34 63-47 84l-2-2-4 9v3l17 25 10 16 3 6c-16 9-69 20-77 26 1 5 4 21 6 25-1 15 3 36 4 52l2 17-27-13-50-25-25-13c9-18 71-172 74-175l1-1q1-7 5-13h2l-13-11-4-4-14-10c3-7 4-10 5-17l11-51c12-3 15-2 25-9 8 8 11 11 20 17 0-9-6-17 0-22"/><path fill="#c8a44e" d="m809 489-1 15-15 111-8 47-28 25-3 4-25-13c9-18 71-172 74-175l1-1q1-7 5-13"/><path fill="#f2f0ea" d="m809 489-1 15-15 111-8 47-28 25c0-5 6-24 7-30l27-108c3-9 11-38 12-46l1-1q1-7 5-13"/><path fill="#e0b84e" d="M844 410c5 2 50 67 56 75l-30 65-4 9-10-17c1-9-9-106-12-112zm-35 79h2c4 2 3 1 5 5l2 104v36c-5 3-25 23-33 28l8-47z"/><path fill="#f2f0ea" d="M844 430c3 6 13 103 12 112l-15-21 1-29z"/><path fill="#101528" d="M814 401c9 7 16 10 23 17l-4 10-14 8 10 12v2q-4 4-10 5c-30-9-5-21 4-33l-20-11z"/><path fill="#e0b84e" d="m621 617 2 5 1 7 61 178c11 30 15 59 20 90l13 85 31-149 3-17 3 4q-4 26-3 54c-3 42-2 87-5 130l-21 11c2 14 0 34 3 47 1 18 1 40 3 58l2 27v2c-5 7-18 19-25 26l-35 37-68 18-139 37c-14 3-57 16-68 16l29-11 188-76 77-30q20-8 39-18h1c-7-7-21-17-26-25l-20-37-36-75-54-107c-28-55-56-114-85-168l1-1c17 29 39 61 57 90 47 79 99 156 147 234l2 4v-7l-59-257-25-113-14-56z"/><path fill="#c8a44e" d="m386 1211 25-8-3 8c-5 29-14 67-16 95 0 4 6 18 8 23l-11 5c-11 1-111 53-128 60l-27 12-38-51 42-29-28-56 12-6 45-26c8 0 94-23 105-26q8-3 14-1"/><path fill="#e0b84e" d="m386 1211 25-8-3 8-122 84-48 31-28-56 12-6 45-26c8 0 94-23 105-26q8-3 14-1"/><path fill="#8a6a3a" d="M372 1212q8-3 14-1l-12 3-107 36c-10 4-37 14-45 14l45-26c8 0 94-23 105-26"/><path fill="#f2f0ea" d="M858 1168c25-21 66-59 89-83l1 7v40l1 22 2 127v166l1 98h-1c-2-2-7-26-8-31-33-114-54-232-85-346"/><path fill="#e0b84e" d="M592 577c35-4 65-21 81-52 6-12 11-27 23-35 15-10 37-9 54-18 15-7 22-16 35-25-1 7-2 10-5 17l14 10 4 4 13 11h-2q-4 7-5 13l-1 1c-3 3-65 157-74 175-10-4-32-17-41-22-19-10-42-22-59-34 17-6 97-44 108-54q13-13 24-29l30-37-46 24-93 50c-11 6-45 22-53 28-4 1-32-18-40-22 8 0 26-2 33-5"/><path fill="#c8a44e" d="m780 464 14 10 4 4 13 11h-2l-28 9-35 10 5-6 6-8 6-8 4-6c4-4 9-13 13-16"/><path fill="#e0b84e" d="m856 1170 2-2c31 114 52 232 85 346 1 5 6 29 8 31h1c-2 27-5 65-5 91l-1 3c-11-28-17-54-26-82q-23-69-38-140c-4-19-11-39-13-59l-3-41-5-60c-1-22-6-67-5-87m-51 39 2 1-13 41-26 91q-39 121-75 244l-74 9c18-31 36-69 54-100 10-21 25-42 34-62 31-75 67-149 98-224m-326 267 32-44 79-109c15-21 33-47 50-66l22-18 50-37 23-16 2-1v1c-13 22-34 56-50 75-21 27-50 55-74 79q-67 68-132 138zm-14-675 2 1c-6 31-10 75-14 106l-22 162c-3 26-9 73-14 99l-3-13-3-38-10-86-10-102-9-68 2-1q20 80 36 158c13-71 32-146 45-218m307 388-53 152q-14 35-26 71l-6 14 3-16c3-25 7-133 13-145 5-10 16-20 23-28l43-48z"/><path fill="#c8a44e" d="m413 1177 2 4q-4 8-4 18 0 2 3 2l-1 1v-1l-1 1-1 1-25 8q-6-2-14 1c-11 3-97 26-105 26q-6-19-16-37l32-4 64-9z"/><path fill="#8a6a3a" d="M796 1169c4-4 19-1 24 0l-13 41-2-1z"/><path fill="#e8d292" d="m414 1156 3 13-2 12-2-4c3-4 1-14 1-21m338-340 3-11c2 1 0 13 0 15zm-287-15c1-18 6-15 2 1zm-83 61c-1-2-3-9-1-11l3 10zm88 627 9-13 2 2zm42-753c-1-1-5-7-3-8l4 7z"/><path fill="#c8a44e" d="M1167 1125c-12 20-33 42-42 57l-9 10c22 10 53 22 77 29l17-28 4 2 5 1 12 1c0 46-1 99 1 145-9 4-63 33-67 38l26-9 55-21 196-71h2l63 31c8 4 28 13 34 18 9 6 25 24 33 33l84 86v1l37 107 36 105v2l65 89 77 106 38 51 19 26q-53 2-107 1H801l-2-4a883 883 0 0 0-58-188c-6-14-13-32-20-45l3 1 74-19 48-11c24-6 74-18 99-26l1-4 1-3c0-26 3-64 5-91l-1-98v-166a586 586 0 0 1 81-63l19-14 37-27c29-19 45-40 79-52"/><path fill="#e0b84e" d="m1219 1196 12 1c0 46-1 99 1 145-9 4-63 33-67 38l26-9 55-21 196-71h2l63 31c8 4 28 13 34 18 9 6 25 24 33 33l84 86-120 26c0-18 7-137 4-142l-2 1-59 51-99 83c-34 29-67 61-103 87 41 35 62 73 89 119l29 51c4-21 17-52 25-73q20-57 42-112l42-113c9-24 19-52 30-75l2-5v9q-8 74-3 148l4 112q-57 43-111 87-15 13-31 23c-20-1-45-6-65-9q-56-6-113-15l-60-8-2-1c1-7 95-110 107-124-20-2-50-9-71-12l-186-31 55-51q49-44 96-90l2-4 12-38q14-48 31-94c5-14 13-38 16-51"/><path fill="#8a6a3a" d="M1442 1279h2c-3 3-9 15-13 19l-117 188-49 80-84-146-22-37h4c46 18 99 37 145 53 11-11 24-28 34-40l87-99z"/><path fill="#e0b84e" d="M1546 1625v-11l3 9 44 148 33 113-9 36 2 1c4-6 18-40 22-49l55-127 35-83 65 89 77 106 38 51 19 26q-53 2-107 1h-483c8-22 15-49 21-72l38-138 30 29 140 135c12 12 34 31 44 44l1-2-13-54-47-179c-2-7-2-24-3-32q-1-20-5-41m-391 68q50 73 105 143c10 14 78 92 79 99h-264l9-28 17-52 34-106c5-14 14-44 20-56m-353 242 128-127 40-40 24 38 48 76 33 52c-19 0-63-1-81 1z"/><path fill="#e0b84e" d="M1546 1611c13-16 26-37 38-55l49-70 25-38 37 107 36 105-2 2c-17-3-44-12-61-16z"/><path fill="#8a6a3a" d="M1032 1218c0 11-5 34-7 46l-12 70-1 5-43 233c-3 17-13 47-20 64h-2c0-26 3-64 5-91l-1-98v-166a586 586 0 0 1 81-63"/><path fill="#e0b84e" d="m724 1699 74-19 48-11 42 19c12 7 78 66 82 73-5 2-51-11-60-13l-105-27-52-14c-8-2-22-5-29-8m364-522 15 45 55 157c-4-3-32-39-33-44-12-41-21-87-29-128l-22 36-58 90q-1 5-4 6l1-5 12-70c2-12 7-35 7-46l19-14zm-84 351 117 126 32 37q-77 24-151 57c-5 2-26 14-29 13l-2-1c10-79 18-153 33-232"/><path fill="#e0b84e" d="m1093 1254 4-5-2 5-16 45-26 77-30 89-14 44-2 4c-2-3-1-28 0-33l1-73 47-82c12-21 28-49 38-71"/><path fill="#f2f0ea" d="m961 66 77 14c5 1 37 6 39 8 47 39 93 85 139 126l14 11q-10 47-22 93l-5 21 8 14-8 15q-4-1-9 3h-2l-6 2-53 23c1 9 7 26 9 36l6 33-62 44-12 7-4 16-8-7v2c2 2 7 6 6 9-5 2-10-3-13-5l4 6q7 0 15 3c-5 12-29 76-33 79l-17 12-31 20h-2l-47-9-5-1-11-2-20-4-12-26-3-6-10-16-17-25v-3l4-9 2 2c13-21 36-61 47-84l36-11c-17-15-43-29-63-43-12-8-39-29-51-32-6 5 0 13 0 22-9-6-12-9-20-17-10 7-13 6-25 9l-11 51c-13 9-20 18-35 25-17 9-39 8-54 18-12 8-17 23-23 35a98 98 0 0 1-81 52c-32-7-63-8-90 11-35 24-68 33-107 11-18-11-32-25-53-29-21-3-35 3-54 9a106 106 0 0 1-119-67q-15-42 3-81c19-40 56-61 99-62 22 0 48 4 69-6 40-20 48-58 93-79 49-22 82 0 132-13q28-7 52-22c20-14 38-30 61-38 26-9 48-13 73-1 1-9-15-30-21-37 8-7 35-32 40-35 19-9 50-20 71-28z"/><path fill="#e0b84e" d="m961 66 77 14c5 1 37 6 39 8 47 39 93 85 139 126l14 11q-10 47-22 93l-5 21 8 14-8 15q-4-1-9 3h-2l-6 2-53 23c1 9 7 26 9 36l6 33-62 44-12 7-4 16-8-7v2c2 2 7 6 6 9-5 2-10-3-13-5l4 6q7 0 15 3c-5 12-29 76-33 79l-17 12-31 20h-2l-47-9-5-1-11-2-20-4-12-26-3-6-10-16-17-25v-3l4-9 2 2c13-21 36-61 47-84l36-11c-17-15-43-29-63-43-12-8-39-29-51-32 7-5 12-7 14-15-5 1-29 17-38 20 8-9 26-19 37-26q5-3 6-8c-6 0-32 20-37 24l-1 1h-1v-3c3-8 30-22 39-28l3-7h-1c-7 3-34 21-39 27l-1-2c2-12 45-27 49-41v-2l-48 33h-1v-3c3-8 43-29 53-38v-4l2-9 3-2c28-28 40-54 40-95-10 2-26 4-35 7l-53 23-63 28q3 26-23 22c-3-4-1-2-5-4-9-12-2-21 8-28l11-33-9-9c1-9-15-30-21-37 8-7 35-32 40-35 19-9 50-20 71-28z"/><path fill="#101528" d="m961 66 77 14c5 1 37 6 39 8 47 39 93 85 139 126l14 11q-10 47-22 93l-5 21 8 14-8 15q-4-1-9 3h-2l-3-16-10-65-1-6-3-15-2-6-4-23-24-7-132-42c-5-1-21 2-27 2l-66 11c-10 2-26 4-35 7l-53 23-63 28q3 26-23 22c-3-4-1-2-5-4-9-12-2-21 8-28l11-33-9-9c1-9-15-30-21-37 8-7 35-32 40-35 19-9 50-20 71-28z"/><path fill="#0a0e1c" d="M763 160c11-8 58-25 73-31q60-22 117-48c14 3 43 5 54 9q6-1 10 1l-1 1q-103 40-208 78l-16 28-28 48-2-27c1-23 6-36 1-59m309-48 19 20 43 44c22 23 54 52 74 76 0 24-7 58-11 83-4-17-4-34-9-54-2-10-8-50-11-57-5-6-25-11-33-14l-144-50c22-13 52-33 72-48"/><path fill="#0a0e1c" d="M838 183c10-2 24-8 34-11l66-25 124-46q-40 28-79 60c-5 3-42 7-50 9-29 5-63 7-91 16l-6-1z"/><path fill="#f2f0ea" d="M1111 246c11 5 53 22 64 23l3 15 1 6 10 65 3 16-6 2-53 23c1 9 7 26 9 36l6 33-62 44-12 7-4 16-8-7v2c2 2 7 6 6 9-5 2-10-3-13-5-7-6-19-29-28-35-6-8-21-26-24-33l1-5q15-15 27-31l1-5c7-2 48-92 56-105h1q12-35 22-71"/><path fill="#8a6a3a" d="m1115 327 37-13 37 41 3 16-6 2-53 23c-1-17-27-20-39-19l5-29c0-3 1-10 3-13q4 0 6-4z"/><path fill="#101528" d="M1099 348c14 3 28 11 44 15l-3 30-7 3c-1-17-27-20-39-19z"/><path fill="#c8a44e" d="M1094 377c12-1 38 2 39 19 1 9 7 26 9 36l6 33-62 44-12 7 8-49 23-2 13-20c3-6 9-8 10-18 0-9 7-11 0-23-8-14-24-18-37-9z"/><path fill="#f2f0ea" d="m1129 271 50 19 10 65-37-41-37 13-7 4 20-56z"/><path fill="#e8d292" d="M1088 317h1c2 14-29 133-33 156q-10-15-18-32l-7-14 1-5c7-2 48-92 56-105"/><path fill="#8a6a3a" d="m1031 427 7 14-30 22 35 39 19 23v2c2 2 7 6 6 9-5 2-10-3-13-5-7-6-19-29-28-35-6-8-21-26-24-33l1-5q15-15 27-31"/><path fill="#e0b84e" d="m1125 265 53 19 1 6-50-19-1 4-20 56q-2 4-6 4c4-19 16-52 23-70"/><path fill="#0a0e1c" d="M1085 447c13 3 21 7 33-2l-13 20-23 2 2-12z"/><path fill="#e0b84e" d="M1128 427c-1 10-7 12-10 18-12 9-20 5-33 2l1-5 1-8q7 10 21 8t20-15"/><path fill="#0a0e1c" d="M1091 395c13-9 29-5 37 9 7 12 0 14 0 23q-6 13-20 15-13 2-21-8h3c13 9 29 7 36-8 9-19-8-38-28-32-2 1-7 5-7 1"/><path fill="#0a0e1c" d="M1099 402a15 15 0 1 1 11 27 15 15 0 0 1-11-27"/><path fill="#e0b84e" d="m995 490 16-9 10 15c1-3-3-6-2-7l2 2q1 4 6 5c9 6 21 29 28 35l4 6q7 0 15 3c-5 12-29 76-33 79l-17 12-31 20h-2l-47-9-5-1-11-2-20-4-12-26-3-6-10-16c5-6 23-48 29-59l7-4c14 1 56-33 76-34"/><path fill="#f2f0ea" d="m995 490 16-9 10 15c1-3-3-6-2-7l2 2q1 4 6 5c9 6 21 29 28 35l4 6c-1 3-10 27-12 28q1 3-1 7-22-6-43-14c-7-2-24 0-32 0l-34-1 9 1 7 9c-4 6-44 14-53 15 2-8 6-26 12-32 23-24 59-36 83-60"/><path fill="#57441c" d="M1033 555c2-2 9-11 12-9l2 19q1 3-1 7-22-6-43-14c-7-2-24 0-32 0l-34-1-4-1-1-3h4l15-1c15 1 46-3 60-6 10 5 12 6 22 9"/><path fill="#8a6a3a" d="M950 547c19-3 40-12 58-14l35 5 2 8c-3-2-10 7-12 9-10-3-12-4-22-9-14 3-45 7-60 6-1-3-2-2-1-5"/><path fill="url(#a)" d="M1021 496c1-3-3-6-2-7l2 2q1 4 6 5c9 6 21 29 28 35l4 6c-1 3-10 27-12 28l-2-19-2-8q-9-20-21-39z"/><path fill="#c8a44e" d="m936 553 67-52q1-2 4-1-20 20-42 36l-15 11c-1 3 0 2 1 5z"/><path fill="#0a0e1c" d="m933 556-7 9c-7 9-15-2-8-9q6-5 14-3z"/><path fill="#e8d292" d="M948 588c3-2 22-6 25-6 9 8 26 20 33 28h1c2 5 13 15 17 21l-31 20h-2l-47-9-5-1-11-2 4-2c2-15 12-35 16-49"/><path fill="#c8a44e" d="M1006 610c2 5 13 15 17 21l-31 20h-2l-47-9-5-1-11-2 4-2c11-8 45-16 59-21q8-2 15-6"/><path fill="#8a6a3a" d="M1059 537q7 0 15 3c-5 12-29 76-33 79l-17 12c-4-6-15-16-17-21h-1c-7-8-24-20-33-28l6-1 4-1 2-1 10-2 12-3q16 10 32 17c2-5 4-14 7-19q2-3 1-7c2-1 11-25 12-28"/><path fill="#f2f0ea" d="M948 588c-4 14-14 34-16 49l-4 2-20-4-12-26-3-6 5-1zm38-395c6 0 22-3 27-2l132 42 24 7 4 23c-9-1-55-19-66-23-4 12-17 65-22 70l-1 1c-9 3-33 9-38 13l-7-22c-14-4-39-10-54-11-11 15-29 32-33 49l-21-5 1-3 12 3-1-3c-3-6-24-51-22-55 5-4 21-11 28-15l52-26c-4-13-9-30-15-43"/><path fill="#8a6a3a" d="M937 276c22-2 78-8 99-14l48 49c-9 3-33 9-38 13l-7-22c-14-4-39-10-54-11-11 15-29 32-33 49l-21-5 1-3 12 3-1-3c-3-6-24-51-22-55z"/><path fill="#e0b84e" d="M1020 222c10-1 21 3 31 4l14 20c6 8 24 25 24 33-8-3-34-40-40-48l-23-5q-5 0-6-4m-7-22 19 6c6 3 47 12 46 18v1l-15-5-49-16-1-3z"/><path fill="#f2f0ea" d="M879 328c19 9 48 18 69 22-9 19-14 34-21 54l52 31c18-6 34-15 53-13l-1 5q-12 16-27 31l-1 5c3 7 18 25 24 33q-5-1-6-5l-2-2c-1 1 3 4 2 7l-10-15-16 9c-20 1-62 35-76 34l-7 4c-6 11-24 53-29 59l-17-25v-3l4-9 2 2c13-21 36-61 47-84l36-11 1-1q-6-11-15-21a696 696 0 0 0-63-74z"/><path fill="#c8a44e" d="m919 524 85-66-1 5c3 7 18 25 24 33q-5-1-6-5l-2-2c-1 1 3 4 2 7l-10-15-16 9c-20 1-62 35-76 34m-49 26 2 2-6 10v-3z"/><path fill="#101528" d="M985 291c15 1 40 7 54 11l7 22c7 21 8 37-2 57q-12 21-35 29c-27 8-50-5-57-32-3-12-2-17-2-29l2-9c4-17 22-34 33-49"/><path fill="#c8a44e" d="M992 313a44 44 0 1 1 12 86 44 44 0 0 1-12-86"/><path fill="#233767" d="M969 347c6-10 7-16 20-21q13-6 25 2 9 4 16 13c6 5 5 21 2 28q-4 8-13 14c-18 14-37 7-49-11l1-12q1-7-2-13"/><path fill="#e0b84e" d="M969 347c6-10 7-16 20-21q13-6 25 2l-3 3a28 28 0 1 0 14 11l5-1c6 5 5 21 2 28q-4 8-13 14c-18 14-37 7-49-11l1-12q1-7-2-13"/><path fill="#ebdba3" d="m1011 331 3-3q9 4 16 13l-5 1q-5-8-14-11"/><path fill="#f2f0ea" d="M996 334a24 24 0 1 1 11 45 24 24 0 0 1-11-45"/><path fill="#101528" d="M997 341a16 16 0 1 1 8 32 16 16 0 0 1-8-32"/><path fill="#c8a44e" d="m931 335-15-3-1-2 5 1h1l12 2z"/><path fill="#0a0e1c" d="M741 280c4 2 2 0 5 4l-14 71c-2 8-5 32-10 36l-4-2c0-6 10-42 12-50l-2-2-17 48q-6-2-7-6l1-2 2 2q7-26 18-50h-2l-26 48-5-5c-1 4 23-40 23-40l-2-2 4-6q-2-1-2-3v-3l-1-1q3-6 8-8 4-4 2-8l-13 10v-1l-49 37h-1q-3-1-4-4c19-17 44-31 63-47z"/><path fill="#101528" d="M724 300c6-2 3 0 5-3l2 2c1 6-7 14-8 20l-2 3-4 2q-2-1-2-3v-3l-1-1q3-6 8-8 4-4 2-8z"/><path fill="#b8a0e0" d="M722 309q-2 5-7 9l-1-1q3-6 8-8"/><path fill="#8a94a8" d="M735 315c1 2-3 17-4 20l-1 4-2-2z"/><path fill="#566794" d="M711 310c2-3 10-11 13-10v1l-13 10z"/><path fill="#8a94a8" d="m723 329 9-16-1 1v1l-6 14z"/><path fill="#b8a0e0" d="m717 324 4-2-1 2-5 8-2-2z"/><path fill="#0a0e1c" d="M724 301q2 4-2 8-5 3-8 8c-6 5-38 37-39 42l-1 1-7-6c17-13 29-28 44-43z"/><path fill="#c8a44e" d="M875 310c-3-2-53 35-53 35-1-2-1-8 2-9l11-7 42-28z"/><path fill="#0a0e1c" d="M715 319v2q-1 2 2 3l-4 6-28 38-5-4 1-1c12-12 22-32 34-44"/><path fill="#8a6a3a" d="M662 347c1 0 5 3 4 4s-4-3-5-4z"/><path fill="#f2f0ea" d="M1354 560c71 30 140 65 210 95-25 17-42 29-65 49l40 22 32 17c-56 24-98 56-143 96-9 9-22 19-30 28 11 4 18 17 25 27-3 9-9 23-11 32v2c0 8 1 20 3 28-4 12-7 12-13 22l1 4 2 19-15 26v3c1 6 3 18-1 23l-5 3-5 2-2 1-22 13 18 92-67 3-3 34-72-4-12-1-5-1-4-2-17 28c-24-7-55-19-77-29l9-10c9-15 30-37 42-57-34 12-50 33-79 52l-37 27-19 14a586 586 0 0 0-81 63l-2-127-1-22 1 11c17-11 48-26 62-37l12-8 58-35q2-1 4 1l1-1q-3-7-2-16v-22c1-24 5-60 4-82 10-14 28-41 39-53-8-14-24-35-33-48l-66-95 65-31c1-3-9-25-11-31l31-4 56-9c7-30 12-67 20-95 39 7 82 13 120 21z"/><path fill="#b8a0e0" d="M1354 560c71 30 140 65 210 95-25 17-42 29-65 49l40 22 32 17c-56 24-98 56-143 96-9 9-22 19-30 28-5-2-27-5-33-6h-5q-9-3-16-3h-2q-3-6-2-13l1-71 1-129-173 27c7-30 12-67 20-95 39 7 82 13 120 21z"/><path fill="#e0b84e" d="M1189 577c39 7 82 13 120 21 48 8 91 15 139 25l-83 184c-4 10-21 43-23 51q-3-6-2-13l1-71 1-129-173 27c7-30 12-67 20-95m310 127 40 22 32 17c-56 24-98 56-143 96-9 9-22 19-30 28-5-2-27-5-33-6h-5q46-68 104-125 16-17 35-32m-211 263c11-1 54-14 64-20l2-1 8 6v1l7 4c8 7 25 21 34 25l2 19-15 26v3c1 6 3 18-1 23l-5 3-5 2-2 1-22 13 18 92-67 3-3 34-72-4-12-1-5-1-4-2-17 28c-24-7-55-19-77-29l9-10c9-15 30-37 42-57 19-4 115-58 134-70l5-3v-1l-4-1c-12 0-39-14-51-20v-1c4-6 14-13 20-17l-11-8-16-18-7-7q7-3 11-10 2 5 6 6c10-1 23-7 34-8"/><path fill="#f2f0ea" d="m1316 1055 1-3h1q1 4-1 7l-11 108-3 34-72-4-12-1-5-1-4-2-17 28c-24-7-55-19-77-29l9-10 32-19q33-19 64-42c22-14 44-30 67-40 0 37-5 74-6 110 3-10 5-25 7-36 8-29 16-72 27-100"/><path fill="#e0b84e" d="m1210 1193 42-61-7 12-30 50-1 1z"/><path fill="#f2f0ea" d="m1358 1007 5-1c3 4 16 13 20 14l7 7v3c1 6 3 18-1 23l-5 3-5 2-2 1-22 13 18 92-40 1 2-33 6-64 31-10q-16-7-30-18 6 0 9-5-7 0-14 3h-1l-19 1-24-1 24-4c0-8 1-14-6-19z"/><path fill="#e8d292" d="m1375 1033 8 6v13l1 4-5 2c-3-6-4-3-10-7-6-5-5-5-10-11z"/><path fill="#ebdba3" d="M1383 1039v13l-13-11c12 4 11 8 13-2"/><path fill="#8a6a3a" d="m1358 1007 5-1c3 4 16 13 20 14l7 7v3q-17-10-32-23"/><path fill="#f2f0ea" d="M1288 967c11-1 54-14 64-20l2-1 8 6v1l7 4c8 7 25 21 34 25l2 19-15 26-7-7c-4-1-17-10-20-14v-4c3-6 11-6 17-8l-4-4q-4 4-9 4 0-3 3-6l-6 1q-3 2-3 5l3 2q-1 3-5 5l-4-4 3-6q-2-2-6-2l-33 3-10 2-13 2h-3c-5 1-18 3-23 1-4 0-4 1-8 3l-3-4q4 1 6-1l-4-4q-6-6-7-16c10-1 23-7 34-8"/><path fill="#f2f0ea" d="M1254 975c10-1 23-7 34-8q5 9 6 20l-10 5-14 5c-4 0-4 1-8 3l-3-4q4 1 6-1l-4-4q-6-6-7-16"/><path fill="#8a6a3a" d="M1254 975c10-1 23-7 34-8q5 9 6 20l-10 5-14 5c-4 0-4 1-8 3l-3-4q4 1 6-1c11-4 15-4 25-11l-1-2c-6-18-14-11-31-6l3 15q-6-6-7-16"/><path fill="#ebdba3" d="M1380 994c2 2 5 1 7 6l6 4-2 2q-5-2-8 0l4 1h2c2 4 1 3 1 8q-1 2-3 2l-4 3c-4-1-17-10-20-14v-4c3-6 11-6 17-8"/><path fill="#e0b84e" d="M1387 1017c-2 0-9-2-10-4 1-1 12 2 13 2q-1 2-3 2m-77-24c0-7-1-21 3-26 0 6 0 21-3 26m10-19q4 5 4 9c-3-4-4-4-4-9"/><path fill="#c8a44e" d="M1311 1015c7 5 6 11 6 19l-24 4v1l-1 1c-4 0-5-19-6-23q15 0 25-2"/><path fill="#f2f0ea" d="M1293 1020c5-1 17-3 19 1q4 9-3 11c-8 2-9 2-17 2-1-4-4-13 1-14"/><path fill="#f2f0ea" d="M1243 969q3-2 5 0-4 7-11 10l7 7 16 18 11 8c-6 4-16 11-20 17v1c12 6 39 20 51 20l4 1v1l-5 3c-19 12-115 66-134 70-34 12-50 33-79 52l-37 27-19 14a586 586 0 0 0-81 63l-2-127-1-22 1 11c17-11 48-26 62-37l12-8 58-35q2-1 4 1l1-1 8 9-2 1c7 7 44 50 49 52q0-5-4-8l-9-10 114-76c3-13-14-38-20-49z"/><path fill="#e0b84e" d="m948 1132 1 11 2 6 10 59 3 14 1 4c10-1 30-2 40-1l-4 3h-37v3c13 0 22 0 35-2l-10 5h-24l1 3h21l-3 2-18 1v4l13-1-11 5 3 17c-4 4-15 14-20 16l-2-127z"/><path fill="#ebdba3" d="m1086 1063 8 9-2 1-7-9z"/><path fill="#e0b84e" d="M1051 1141c9 0 66-4 72-2l-2 2-6 1h-2c-4-1-44 0-46 1 1 2 41 1 46 2 1 3-6 3-8 3q-30 0-60-4zm-54 53 24-3h30q-3 4-8 3c-3-1-27-1-28 1l28 2c1 2-5 2-6 2-13-3-34 0-47-1l1-1zm64-62 69 1-4 3c-17-1-39 0-55 1h-18zm-30 29c8 0 54-1 59 1l-3 2-63 2q1-5 7-5m11-13 19 1 44 2q-3 5-9 3c-14-3-48 0-58-3zm205-110 2-1 1 1 15 19c2 2 9 12 2 15-2 1 0-9-2-8l-1 3s-11 16-8 8l6-9q0-8-5-14c-2-3-9-9-10-12zm-186 91c14-4 58 0 73-1v2c-9 0-67 1-73-1m-46 45c16 1 48-3 60-1q-3 4-8 3h-1c-11-1-40 1-54 1l1-2zm22-20c15 1 49 1 59 3l-1 2c-11-1-57 0-62-2zm-13 14c11 1 53-3 59 1l-8 1h-1c-13-2-49 3-56-1zm42 11c1 3-6 3-8 3-9-1-43 1-53 2q2-4 6-4l1-1c13 3 40-2 54 0m-60 7c13 1 42-3 54 0-5 2-4 2-10 2h-17c-11-2-26 4-35 3z"/><path fill="#ebdba3" d="M1150 1109c5-4 3-3 9-2v8h-4q0 3-4 5l-3-3-3 5c-4-9-3-1-7-6 1-6 2 0 5-3l4-3c-3 12 1 6 3-1"/><path fill="#e0b84e" d="m1151 1120 4-7v2q0 3-4 5m-171 88c10-1 38-2 48 0l-1 1-9 1h-26l-14 1q0-2 2-3m10-7c12 0 36-1 47 2l-4 1-49-1zm-11 13 41-1q-4 4-10 3c-10-1-34 3-40 1 4-4 4-3 9-3m31 5q1 1-1 2c-5 1-40 3-44 0l2-1c13 0 31-2 43-1m195-135c3-5 8-8 4-1-1 3-9 20-12 19-1-2 4-11 5-13zm38-20c3 3-8 20-10 24-5-4 7-21 10-24m-43 24c-2 3-10 18-13 17 0-2 13-23 15-22q0 3-2 5m51-27c3 4-8 20-10 23l-2-1zm-35 15c4 3-7 19-10 23-2-2 8-20 10-23m13 1 9-13c-3 7-10 22-15 27zm-50 16 10-5-16 21c0-7 7-8 6-16m37 0h-1v-3c1-3 6-14 9-16l2 2zm41-34c2 5-4 19-9 23q-1-4 1-6c5-5 4-11 8-17m-66 27c5 3-8 18-10 21h-1zm-17 9q-1 7-5 14c-1 0-4 4-5 3 0-2 8-14 10-17m-15 12q2-4 8-8c2 2-6 9-7 12q1 5-1 4z"/><path fill="#f2f0ea" d="m1296 881 3-1 8 14 2 10 3-1 15-7q16-7 33-12l1 2c1 8 10 12 16 16l21 14 14 10v2c0 8 1 20 3 28-4 12-7 12-13 22l1 4c-9-4-26-18-34-25l-7-4v-1l-8-6-2 1c-10 6-53 19-64 20s-24 7-34 8q-4-2-6-6-2-2-5 0v-2l1-2-6-18 2-9 3-1 18-7 14-1q0-6-2-10h3l27-14v-1q2-11-6-20z"/><path fill="#c8a44e" d="m1296 881 3-1 8 14 2 10 3-1 15-7q16-7 33-12l1 2c1 8 10 12 16 16l21 14 14 10v2q-28-13-53-32l-9 5-3 2h-2l-15 7-31 12-23 7-2 2 1 1q5 8 7 18l1 3c6 0 25-6 32-8l3-1 27-7h8q11 14 17 17c6 4 28 23 32 24l1 4c-9-4-26-18-34-25l-7-4v-1l-8-6-2 1c-10 6-53 19-64 20s-24 7-34 8q-4-2-6-6-2-2-5 0v-2l1-2-6-18 2-9 3-1 18-7 14-1q0-6-2-10h3l27-14v-1q2-11-6-20z"/><path fill="#f2f0ea" d="M1249 941c5-3 16-5 23-6l6 17-2 1-23 7z"/><path fill="#e0b84e" d="M1393 937c9 2-10 10-12 11l-2-2zm-4 14-6 1c-1-2 22-14 16-7zm20 3c9 2-5 4-6 4s-8 3-8 1zm-5-4h3c0 2-11 5-13 6h-2c1-2 10-5 12-6m-18-14c7 1-8 6-9 6l-1-1c1-2 8-4 10-5m13 12c4-3 4-3 9-3-2 1-8 5-10 4zm-204-14q-5-6-5-13h1l22 44h-1c-5-5-12-21-16-28-18 21-39 52-55 74-14 19-33 44-45 64l35-26c37-27 72-61 112-82v2l-21 13c6 11 23 36 20 49l-11 9-103 67 9 10q4 3 4 8c-5-2-42-45-49-52l2-1 20-29c27-35 53-74 81-109"/><path fill="#f2f0ea" d="m1220 984 18 31-125 67-4 2q-6-1-10-8zm17 33c3 2 4 9 5 12-8 7-23 16-32 22l-84 55-5-6-12-12 67-37c16-8 46-24 61-34"/><path fill="#e0b84e" d="M1095 721c4 2 2 1 4 4q20 51 42 101c11 26 23 55 36 79q12-1 23-9c31-25 47-65 91-71-2 2-12 12-15 13l-1 4-27 27-3 3c-38 38-47 37-94 58l-5-12 14-6-63-185zm207 99q3-1 5 1c11 11 20 28 31 38l-25 14 6 8 1-8 1 1c2 6 8 12 10 17l-1 1h-2l-6-8h-2q-1 3 2 4v3h-1l-1-3-8-15-13 7-3 1 1 3q8 9 6 20v1l-27 14h-3q3 4 2 10l-14 1c0-9-1-25 1-33v-9c5-7 33-22 43-28 4-2 11-4 13-7l-1-3-2-7-1 1-12-17q2-2 0-7"/><path fill="#f2f0ea" d="M1297 884q8 9 6 20v1l-27 14-8-22c8-4 21-11 29-13"/><path fill="#8a6a3a" d="m1296 881 1 3c-8 2-21 9-29 13l8 22h-3l-8-24z"/><path fill="#f2f0ea" d="m1291 825 11-5q2 5 0 7l12 17 1-1 2 7c-5 3-13 10-18 7q-4-1-6 3h-1l-2-5-15-13 1-4c3-1 13-11 15-13"/><path fill="#c8a44e" d="m1291 825 11-5q2 5 0 7l-22 14c3 3 9 10 13 12 7 3 17-4 21-9l1-1 2 7c-5 3-13 10-18 7q-4-1-6 3h-1l-2-5-15-13 1-4c3-1 13-11 15-13"/><path fill="#e0b84e" d="m1220 928 20-18-2 6c4 3 0 20 2 22l-2 9-14 10c-5 5-3-4-1-8 2-2 9-4 8-5l-2-1v-2c-2-1-6 6-8 7-6 3-1-3 0-5l5-5c1-2 11-8 9-9-3 0-13 9-15 12l-2-2 21-24c-4 3-21 21-23 19q0-4 4-6"/><path fill="#8a6a3a" d="M1138 920q4-1 5-6l3 4 5 12-31 14-1-2c8-8 9-12 19-22"/><path fill="#e0b84e" d="m1138 907 3 2c-5 2-4 4-8 5q-7 3-14 10c11-4 16-5 22-14l2 4q-1 5-5 6c-5 0-13 6-15 5-4-3-10 2-17 3q5-4 12-6l13-9v-1l-5 1c1-2 10-5 12-6m-34 44c6-4 8-7 15-9l1 2c-8 2-19 15-23 13 0-3 5-5 7-6m255-71c-7 1-4-13 0-15l5-1q3 8-1 16c-1-3-1-13-3-13zm-110-7c2 1-3 5-1 10q4 3 2-1l1-4v-5c5-1 8 16-3 14-3-1-3-10-2-13zm-138 58q6-4 12-4c5 0 3-1 4 3h-5l-19 5q1-3 8-4m5 51-3 7c-2 2-16 16-19 15l5-7q11-7 17-15m102-59 16-15 3-3h2v2l-20 19-2 1q-9 5 1-4m-2-3c4-8 15-18 23-21-5 5-17 19-23 21m-103 74c3 3-17 17-20 20-4-3 17-18 20-20m-13-21c7-4 10-8 17-11v3c-6 3-15 12-20 14q-1-4 3-6m-1 8c4-1 14-10 18-13v4l-20 15q-2-4 2-6m1 7q8-8 17-11l-3 3c-6 4-13 13-18 15-1-3 3-5 4-7m2-22c3-3 12-11 15-9l-1 2-18 13c-3-3 1-5 4-6m3-27 14-4c7-2 1 5-5 4l-15 5q2-4 6-5m-6 25c-6-3 12-10 14-13 0 0 5-3 3 1zm19-55 17-7c3 3-14 9-16 10zm-18 39 2-1 9-4c0 2-7 5-9 6-1 1-5 1-2-1"/><path fill="#e0b84e" d="M1123 913c5 1-4 7-9 5zm-1-10q6-5 11-5-4 6-11 5m272 6q5 0 12 3-6 1-12-3"/><path fill="#233767" d="M1194 371q4-4 9-3c9 8 71 70 73 75l-1 1c-10-2-46-45-56-54l1 1c11 20 32 41 43 60l-4 4c-7-7-39-58-41-60 1 9 33 63 30 66l-3 2c-10-14-22-48-31-64h-1c5 22 16 45 22 66q1 3-1 5l-3 1c-4-6-18-62-23-73h-1c1 14 17 66 16 75-4 2-2 2-5 2-5-19-9-50-14-71l-1-2h-1l1 9c0 10 6 66 4 70l-4 1c-3-6-2-17-3-24-2-21-1-69-6-87"/><path fill="#57441c" d="m1074 516 12-7-12 31q-7-3-15-3l-4-6c3 2 8 7 13 5 1-3-4-7-6-9v-2l8 7z"/></svg>