<svg xmlns="http://www.w3.org/2000/svg" width="1024" height="1024" preserveAspectRatio="none" style="display:block" viewBox="0 0 2048 2048"><path fill="#c8a44e" d="m1127 2048 58-24 98-40 258-107 143-59 76-32c-13 28-31 60-46 88l-92 174z"/><path fill="#8a6a3a" d="m1624 2048 34-64 72-136 22-40 11-22h2q27 35 56 67l86 104q39 45 76 91zm-363-174 15 47c4 15 13 41 16 56l-111 46c-11 5-50 19-59 25h-41l113-108c21-20 48-45 67-66m396-394q82-35 166-68l63-25 21-8 1 1-2 4q-16 41-30 84l-66 185-36 100-5 13-7 16c-67 31-148 63-217 91l-247 102 24-36q38-54 79-108 126-175 256-351"/><path fill="#f2f0ea" d="M95 816q17-89 93-141c58-40 146-56 214-43l39 12c13 6 22 9 31 22q17 27 36 52c6 7 17 11 24 17l9 24c-6 13-11 26-6 40 6 16 30 27 46 31l3 13c-17 14-21 45-23 65-1 10-2 33 12 35 11 1 15-20 25-22l2 1c-3 16-4 25 16 28 2 5 11 26 10 29v3l-23 9v-1c-7 2-3 6-8 4h-1q8 7 15 18l-30 12-7-17-1-2c0-7 1-26-1-30l-2-2 1 37-3-2-2 1 11 16-21 13c-2-4-11-19-9-23l-1-3-1-2-1-2-3-12v1h1l-1 2 2 15-5-2c-7-6-16 2-25 6l-7-16c-2-14-8-50-7-61l1-2c14-3 19 12 25 22-2-11-7-23-20-24-10-1-17 7-24 13-18-29-31-60-49-89l-1-5c5-1 11 12 32-2l1-1h1c2 6 4 17 7 22 4 8 21 15 30 16h20c8-6 10-9 14-17l-1-2c-7 13-13 18-29 18q11-7 12-21c7-31 1-64-17-91l2-4h1l5 1q5 3 8 7h2c-12-18-30-8-38 7-10 12-11 37-11 53l-7 10c-12 7-20 11-30-1-6-33 14-37 9-67q-4-22-24-33l-1 2c19 13 29 34 21 57l-8 18c-1 7 2 18 0 25h-1c-10-10-14-34-29-33-52 7-10 70 1 89l-15 12h-50l-1 1c10 2 38 1 50 1l17-13 24 41c-28 9-34 7-63 1q-44-11-89-11l-17 4-17-10q-13-14-24-30l-13-17-9-14c-6-10-9-23-17-31-4-5-15-10-21-8-17 5-1 27-1 37l1 3c-5-4-11-12-18-12q-8-1-13 6c-5-7-2-39-27-23l2 4h6c4 5 5 20-4 21l-2-20-2 4h-1l-1-8c-2-9 0-22 1-31"/><path fill="#8a6a3a" d="M501 774h1l5 1q5 3 8 7h2l1 4c10 12-1 27 7 38l11 10c10 13 1 24-3 38-7 13-13 18-29 18q11-7 12-21c7-31 1-64-17-91z"/><path fill="#463a13" d="M501 774h1l5 1z"/><path fill="#f2f0ea" d="M572 1007c5-4 12-13 18-15l4 2q8 7 15 18l-30 12zm-9-2 3 3-2 1 11 16-21 13c-2-4-11-19-9-23l-1-3q8-5 15-7z"/><path fill="#8a6a3a" d="m563 1005 3 3-2 1-5-4z"/><path fill="#0a0e1c" d="M413 752c-26-19-69-21-98-13l-18 7h-1c4-4 17-8 22-10 33-8 68-3 97 14zm104 30c16 15 0 29 11 42l11 10h-3l-11-10c-8-11 3-26-7-38z"/><path fill="#634314" d="M539 834c8 11 1 29-5 40l-1-2c4-14 13-25 3-38z"/><path fill="#3d3d3b" d="M571 1005c6-4 15-17 21-14l-2 1c-6 2-13 11-18 15zm32-15q11-7 23-11v3zm-60 20 11-5c5-3 4-4 9 0h-4q-7 2-15 7z"/><path fill="#4e4d4b" d="m592 991 3 3h-1l-4-2z"/><path fill="#8a6a3a" d="m415 750 1 1-1 2-2-1z"/><path fill="#0a0e1c" d="M549 871c1-5 0-22 2-24l1 4v21c-8 11-16 16-25 25-7 7-5 20-9 25-3-4 5-30 13-32 4-2 16-15 18-19"/><path fill="#8a6a3a" d="m551 847 1 4z"/><path fill="#f2f0ea" d="M1111 456c6-14 8-29 11-37 5-15 24-54 31-66 3-3 51-36 55-37 26-6 73-12 101-15 5 0 37 11 42 14 17 7 35 26 51 36-9 14-30 42-37 55 7 13 41 73 43 84 3 18 1 41 1 60 25 40 19 46 24 92-26 18-54 42-80 61l-54 41 3 72h-1l-38-64c-11-19-30-57-42-74v2c-1 6 70 119 77 136l-40-30q-1 5-4 0c-44-16-71-17-118-13 0-11 5-43 10-52q1-7 4-9l3 2q2 5 6 9v-1l-5-9 1-1 2 1 2 3 1-2q7 0 11 4c-3 4-7 2-10 6l18-7-1-67-30 1-2-56-2-85v-15l-21-25z"/><path fill="#f2f0ea" d="M1146 721q1-7 4-9l3 2q2 5 6 9l1 2 6 4 4 2 1 1 4 2 1 1-1 2c9 5 76 45 78 49h1c-44-16-71-17-118-13 0-11 5-43 10-52"/><path fill="#3d3d3b" d="m1154 722 5 1 1 2 6 4-2 1-10-7z"/><path fill="#0a0e1c" d="m1166 729 4 2-2 2-4-3zm5 3 4 2-2 1-3-1z"/><path fill="#8a6a3a" d="M1152 723v-4l2 3v1zm18 8 1 1-1 2-2-1zm5 3 1 1-1 2-2-2z"/><path fill="#4e4d4b" d="m1176 735 17 10 65 41q-1 5-4 0h-1c-2-4-69-44-78-49z"/><path fill="#0a0e1c" d="M1145 414q0-4 2-4c4 5 4 9 9 15 40 44 141-12 192 82-13-11-37-26-55-26l-13-2 5 3q45 31 37 84-7 33-33 50a78 78 0 0 1-110-20 82 82 0 0 1-11-63q6-33 35-51c-34-6-63-30-58-68"/><path fill="#8a6a3a" d="m1147 414 2 4 4 7 2 4c17 16 45 19 67 18l15 1h4l3 1h8l3 1h5l2 1c32 6 58 16 77 44l2 3c-74-46-107 1-162-26h-1a60 60 0 0 1-32-49z"/><path fill="#463a13" d="M1222 447h11l4 1zm-66-22-1 4-2-4z"/><path fill="#f2f0ea" d="M1236 498a50 50 0 1 1 15 100 50 50 0 0 1-15-100"/><path fill="#0a0e1c" d="M1234 527a23 23 0 1 1 13 45 23 23 0 0 1-13-45"/><path fill="#4f300e" d="m1589 704 4 1c43 2 98 24 123 60q13 17 18 35l-1 3-7 2a460 460 0 0 0-111 32c7 5 24 24 31 31l-23 25-38 43-131 148-156 176-52 58-22 24-1 1-1-1c19-53 34-111 54-164l16-45 18-32c4-9 25-36 25-43-17 22-26 41-40 63a881 881 0 0 1 201-364c23-22 60-52 92-51z"/><path fill="#f6ea7e" d="m1589 704 4 1c43 2 98 24 123 60q13 17 18 35l-1 3-7 2a460 460 0 0 0-142 46 660 660 0 0 0-196 142l-14 16c-7 5-35 41-39 49-17 22-26 41-40 63a881 881 0 0 1 201-364c23-22 60-52 92-51z"/><path fill="#0a0e1c" d="M1593 705c43 2 98 24 123 60h-2c-25-36-77-54-119-58z"/><path fill="#463a13" d="M1716 765q13 17 18 35l-1 3c-7-18-7-20-19-38zm-127-61 4 1 2 2-7-1z"/><path fill="#0a0e1c" d="M1584 851v2q-56 28-108 65c-5 3-16 13-21 13 30-25 94-65 129-80m-196 142c1 4-9 15-14 16zm51-49q-2 8-10 9z"/><path fill="#4f300e" d="m1652 1482-49 66-89 122-122 169c-32 43-68 91-98 136l-32-108c-17-51-30-106-47-157l-15-50a19222 19222 0 0 0 452-178"/><path fill="#c8a44e" d="M1752 976q18 13 34 27 73 63 149 125l-47-2-83-4v2h12l5 1h10l7 1h11l5 1 33 1c3 13 7 56 9 71l20 155c1 3 2 15 1 17l-7-5-57-42-146-108-91-67-49-36v-3h-3c1-3 170-120 187-134"/><path fill="#b8a0e0" d="M1752 976q18 13 34 27 73 63 149 125l-47-2-83-4v2c-77-4-160-10-237-12v-2h-3c1-3 170-120 187-134"/><path fill="#463a13" d="M1568 1110c77 3 161 7 237 12v2c-77-4-160-10-237-12z"/><path fill="#634314" d="m1832 1125 7 1zm18 1 5 1zm-33-2 5 1z"/><path fill="#f2f0ea" d="M438 973q-10-21-22-39c-14-25-31-50-40-77-4-13-1-31 14-33q7-1 13 1l-3 1-3 1q-10 2-18 9l1 1c9-7 17-8 27-11l17 29-19 11 2 1 7-4h1l10-6 10 16 8 14 20 39 14 26-1 2-1 2h4c14 22 28 62 43 88 8 16 19 37 25 54v10c-5 27-5 49-22 72l-58 5c-13 1-33-8-46-13l-71-27c-19-7-61-20-82-25l2-8 2-16 62 18c-7-5-57-18-69-22v-1l5-12 5-18-2-1-5-3 2-2-11-7-38-24-1-1-34-22q-9-4-13-14l-29-60-5-12c-9-27 12-20-5-49 12-7 35 41 41 50 9 15 26 36 31 51h2l34 25c30 22 57 41 91 57 5 2 15 8 20 9l1-1-44-23q3-3 3-7c0-6 4-17 5-23l1-4v-10l2 1h35l65 2 17 18-15-19z"/><path fill="#f2f0ea" d="M380 837c9-7 17-8 27-11l17 29-28 16c-7-9-16-22-16-34"/><path fill="#b8a0e0" d="m435 873 8 14q-7 8-16 12c-4 1-9 4-13 1-4-2-2-4-4-8v-1q-2-3 1-3 7-10 18-13zM173 987c6-6 8-17 19-15 4 1 11 0 12 3l-14 19-7 1q-1 2 3 6-9-4-13-14"/><path fill="#8a6a3a" d="m183 987 6-12q0 7-6 12"/><path fill="#b8a0e0" d="m460 951 8-1c0-4 7 4 8 4l-1 2h4c-4 3-8 9-14 10-9 6-9 4-16 0l-3-4c1-2 6-7 8-7z"/><path fill="#4e4d4b" d="M475 956h4c-4 3-8 9-14 10q1-3 3-3c0-1-6-2-3-3 3 0 9 3 10-4"/><path fill="#4e4d4b" d="M460 951c9 9 7 3 13 5h-1v1c-8 4-9-5-16-3l-2 1zm-5 8q3 0 3 2z"/><path fill="#0a0e1c" d="m270 1055 11 7 3 2c15 9 139 67 141 70-9-1-137-66-150-73l-2-1-5-3z"/><path fill="#b8a0e0" d="M281 1062c-3-11-6-17 8-23l8-2-2 19v1l-1 1-1 1-3 3h-1l-2-1-3 3zM139 915c3-1 29-13 24-3l-1 3-1 3c-7 12-6 5-17 9z"/><path fill="#868586" d="M161 918q-3-3-6 1h-1c1-2 7-8 9-7l-1 3z"/><path fill="#3d3d3b" d="M379 836c0 12 9 25 16 34l9-5 2 1-11 7c-7-8-22-27-17-38"/><path fill="#8a6a3a" d="m319 990 2 1c2 6-5 30-8 36 0-6 4-17 5-23l1-4z"/><path fill="#868586" d="M443 968q2-2 6-2c-3 4-2 1-6 2"/><path fill="#b8a0e0" d="M397 827q1-2 3-1z"/><path fill="#8a6a3a" d="m1648 869 38 38 66 67-109 77q-169 117-337 237c-10 8-70 48-75 54l-4 1 148-166 150-170 82-92z"/><path fill="#c8a44e" d="M1446 408c36-1 65 4 93 30h1l12 12h3l-1 3 7 8 1 1 20 28 1 1 5 6 1 2 2 1 6 7 2 2c40 34 62 41 114 47 55 7 110 15 152 56 37 37 35 69 43 116 6 34 35 76 74 72q15-1 26-14 9-11 7-26-2-13-13-21-7-4-15-5l5-2q27 9 29 37c0 9-5 22-13 28-55 44-120-6-143-60-13-30-17-49-39-71-37-37-74-29-121-29h-7l-3-1c-57-4-104-26-132-77-35-65-79-88-153-73q-13-23-24-47c14-21 36-28 60-31"/><path fill="#463a13" d="m1695 636 10 1h-7z"/><path fill="#8a6a3a" d="m1555 450-1 3-2-3zm9 663c115 83 228 170 343 253l1 1 3-1 7 5-2 1-223 90c-12-28-24-65-35-93z"/><path fill="#463a13" d="m1911 1366 7 5-2 1-8-5z"/><path fill="#f6ea7e" d="M1514 531c43 17 44 29 71 61s77 46 118 47l17 7c52 29 85 75 79 136-3 39-24 73-2 110 18 33 74 35 87-4 4-13-10-31-26-28v-3c19-1 34 8 37 28 5 29-23 49-49 52q-40 5-72-19c-22-16-28-38-32-64l-6-40-2-14q-5-18-18-35c-25-36-80-58-123-60l-4-1c-24-1-33 6-53 18l-38-75 36-59c-9-21-14-36-20-57m-1-183c10 6 23 18 32 25 47 41 98 95 167 78 22-5 43-20 54-40q10-18 16-37c17-42 62-71 105-47 17 10 32 36 12 52l-1-2c19-25-15-41-37-37-46 8-44 56-51 91-11 52-52 98-105 106-48 7-79-5-113-38-15-16-24-35-37-49l-4-4q-36-39-89-41-47-3-78 32l-17-30c9-15 24-38 35-52l11-7q50-19 100 0"/><path fill="#8a6a3a" d="M1216 1359c2 2 99 229 108 252a4243 4243 0 0 1-198 72l-48 17v-1c2-8 10-26 14-35l27-68c31-77 63-159 96-235z"/><path fill="#4f300e" d="m787 1225 4-9c3-1 32 16 36 19 0 4-2 4-2 9l5-9 52 28 27 15 9 5-182 138c-3 2-16 13-19 13l1-3h-2q-5 6-6 11c4 4 16 13 22 13l2 1 2 1q4 1 7 5c3 0 11 6 14 9q5 0 8 5l1 1q7 2 13 7l1 1 4 2 6 4 2 1 5 3 1 1 1 1c8 5 37 21 42 27 1 5 0 6-3 11q-3 8-11 13l-70 43-80-102c-12-15-27-37-40-51v-2c2-5 12-3 17-12q16-17 16-39 6-4 11-10c13 4 31-1 38-13q1-3 4-5l4-2c15-20 16-42 16-64l6-1c28-3 29-27 26-49l7-8-1-2z"/><path fill="#e0b84e" d="m825 1245 5-9 52 28 27 15 9 5-182 138c-3 2-16 13-19 13l1-3 1-2 6-10 3-6 28-49a1615 1615 0 0 0 68-119z"/><path fill="#0a0e1c" d="M728 1414c0-8 16-31 20-39 2-4 4-11 8-10zm75-131c-2-3 18-37 20-38l1 1c-5 11-14 26-21 37m-60 180c3 0 11 6 14 9-5 0-13-6-14-9m23 15q7 2 13 7-8 0-13-7m-9-6q5 0 8 5-6 1-8-5m-38-42q-1-7 6-10zm65 58 6 4q-7 3-6-4m8 5 5 3q-4 2-5-3m-60-37 2 1h-2zm33 21 1 1zm-31-20 2 1h-1zm45 28 1 1h-1zm19 12 1 1-1 1z"/><path fill="#8a6a3a" d="M1435 1207c5 3 17 16 22 21l42 42 143 144 48 49-51 21-123 50-7-29-14-55-38-155c-7-26-17-63-22-88m-102 120v-51l30 42v1l7 9v1l46 65 1 1 1 3 21 29v1l7 9v1l45 64 22 33-186 75v-34c0-3-1-12 1-15v-33c0-3-1-12 1-15v-40q-2-13 1-26l1-54c-1-7-1-20 1-28v-26q-1-6 1-12"/><path fill="#463a13" d="M1331 1393c-1-7-1-20 1-28zm-1 54-1 26q-2-13 1-26"/><path fill="#634314" d="M1327 1576c0-3-1-12 1-15zm1-48c0-3-1-12 1-15z"/><path fill="#463a13" d="M1332 1339q-1-6 1-12z"/><path fill="#c8a44e" d="M1560 1112c4 5 26 70 30 81l42 113c18 48 41 104 56 153q-30-33-62-64l-192-194c39-29 85-60 126-89"/><path fill="#e0b84e" d="m1358 213 24 3c56 9 101 41 145 74q20 16 42 28c46 24 106 14 132-35l17-46c6-15 18-30 33-37 18-9 50-8 63 11a25 25 0 0 1 3 22l-4-1c2-37-44-30-61-10-13 16-17 33-22 52-23 92-118 107-196 77l-17-5c-6-16-31-42-44-51-53-36-110-24-164 3-7 3-55 8-67 10 12-62 54-94 116-95"/><path fill="#f2f0ea" d="M1301 745c41-33 90-67 132-101q5 83 13 165c-6 9-19 28-26 34l-77 65c-8 7-24 22-32 27l-2-3v-18c0-28-3-64-5-93v-13q-2-2-1-5z"/><path fill="#8a6a3a" d="M1309 914v18zm-6-111 1 5q-2-2-1-5"/><path fill="#f2f0ea" d="m1302 825 6 113c-28 22-62 61-92 76l-36 16-51 22c13-41 29-89 39-130l5-14 1-32c-1-2 1-3-2-6l-1-12 3-1c38-10 92-20 128-32"/><path fill="#4e4d4b" d="m1171 858 3-1 1 15c9 7 60 39 64 44v2l-62-42h-3c-1-2 1-3-2-6z"/><path fill="#8a6a3a" d="M947 1604c1-7 156-192 172-209-5 26-9 64-13 91l-21 146c-2 10-8 62-11 67h-3c-4-5-118-92-124-95m-234-162c69-51 138-106 207-157-6 20-75 237-78 240h-1c-5-6-34-22-42-27l-1-1-1-1-5-3-2-1-6-4-4-2-1-1q-6-5-13-7l-1-1q-3-5-8-5c-3-3-11-9-14-9q-3-4-7-5l-2-1-2-1c-5-5-14-10-19-14"/><path fill="#c8a44e" d="m1431 1203 82 326-42-59q-71-99-138-199zm-200 140 100-70c-1 111-6 222-6 333l-80-187-26-62-1-3c2-4 10-8 13-11"/><path fill="#8a6a3a" d="M1206 1080c-3 20-15 55-20 75-15 58-37 119-50 177-21-34-48-67-69-101-6-9-20-29-24-38 18-11 41-29 58-41q52-37 105-72m-361 447c62-59 125-121 188-178-8 23-86 249-89 252h-1c-6-6-35-27-43-32-15-11-32-26-47-36zm379-501 5-13 2-1 3 4 1 1 42 50 1 1 23 28-54 161-18 55-10 30v4c-3-6-6-153-7-171l-2-66-1-35c5-12 11-35 15-48"/><path fill="#e0b84e" d="m923 1286 110 59c-10 11-28 27-40 37l-91 87-57 55 62-189zm287 70 3-1 1 1-1 6c-8 14-16 36-23 52l-30 75c-25 61-52 126-75 187l-4-2c10-78 24-156 34-234l7-48c26-12 64-24 88-36"/><path fill="#4f300e" d="m1123 1389 15-53q20-78 43-154l25-91 1 1 1-1v22l5 155q0 42 2 83l-5 3q-8 2-15 6z"/><path fill="#8a6a3a" d="m532 1243 8 6c-43 39-87 86-129 127v1c5-1 15-13 19-17l82-81 5 27c-13 29-37 55-45 87-3 9-2 22-14 24-22-12-48-10-51-41-8-5-23-18-25-28-2-9 11-26 17-34l78-42z"/><path fill="#e0b84e" d="M1036 1347c26 14 56 32 83 44l-13 16-28 32-90 110-40 48z"/><path fill="#f6ea7e" d="M600 1232c46 17 96 40 141 60 0 27-1 43-18 66q-3 2-4 5c-29 19-32 16-53-9-27-31-59-61-85-92z"/><path fill="#f2f0ea" d="m1141 509 3 143c-12 11-38 33-47 44l-23 38c-4 3-56 19-65 22l24-45 75-142 10-20 7-13 11-18z"/><path fill="#c8a44e" d="m1042 474-3-24q-5-135 130-143l8 5 12 13c-8 6-31 20-37 26-8 9-26 57-33 64l-3-5c-4 3 1 17-12 26-17 12-33 9-49 21-5 4-8 13-13 17"/><path fill="#f6ea7e" d="M616 1209c28-5 62-8 90-12 23-3 58-8 80-8 6 13 4 21 1 36l-6 7-9 11c1 11 3 31-7 39h-1l-3-7c-11-5-17 6-20 14l-77-33c-16-7-48-19-62-27zm98-86 60-30c9 18 22 42 26 60l-12 3q-16 9-6 24l3 6-100 12-68 9 30-50c19-8 47-24 67-34"/><path fill="#f2f0ea" d="M1506 518c2 2 22 60 25 69q-26 46-54 91h-39l-3-34-6-62c22-17 57-45 77-64"/><path fill="#0a0e1c" d="M1506 533q7 26 17 51c-3 6-31 54-33 55-1-4 27-48 31-55l-16-47-48 38v2l-4 1-3 42c4 4 20 19 15 25-3-3-1-6-4-10l-13-14 2-43z"/><path fill="#3d3d3b" d="M1457 577v-2c6 3 28 6 29 8-1 3-26-5-29-6"/><path fill="#f6ea7e" d="M526 1420c9-21 23-126 32-135l2-1c7 3 11 22 14 30l35 106c-22 8-14 20-5 35-18 22-59 12-81 4-3-2-9-4-10-8-4-14 7-19 13-31"/><path fill="#4f300e" d="M1042 1199c4 1 13 18 16 23l77 113-12 44-3 10q-41-20-80-43l1-105z"/><path fill="#c8a44e" d="M1059 462c12 0 37-6 46-13l5 5q1 7 8 13c-49 11-62 59-29 94l-6 16c-34 56-82 41-131 12-24-14-62-37-83-6q-7 11-2 24l-1 1c-13-35 20-57 52-53 18 2 34 11 51 19 26 11 58 9 73-18 14-24 7-55 1-80q9-6 16-14"/><path fill="#f2f0ea" d="M519 1182c6 0 7 0 11-6q14-22 16-51l3-15 49 32 19 14v14c-29 9-32 20-24 48-34 15-15 23-27 50l-68-56-29-24v-1h1l7-1 39-3z"/><path fill="#8a6a3a" d="m470 1187 7-1q-3 2-7 1m46-4 3-1z"/><path fill="#f6ea7e" d="M566 1282q8-7 14-18l13 14 1 2 14 14 1 2 39 42 32 35q-8 6-10 13 0 22-16 39c-13 9-22 10-37 10-18-48-36-104-51-153"/><path fill="#8a6a3a" d="m1040 1195-2 117-1 33-106-57q-6-5-13-7l14-10z"/><path fill="#f2f0ea" d="M167 861q-2-11-8-19l-6-1-1-2c5-5 16-1 21 4q10 15 16 31c14 20 31 44 47 62l26 16 1 1 9 6 47 31v10l-1 4c-1 6-5 17-5 23q0 4-3 7l-6-3-61-41-31-24-7-8q-21-29-38-59l-6-12-5-16z"/><path fill="#b8a0e0" d="M213 940c2-1 9-3 11-2h7q-2 3-2 7 0 5-3 8c-4 7-5 9-12 12l-2 1-7-8c2-10 2-9 8-18m98 64c6 1 1 3 7 0-1 6-5 17-5 23q0 4-3 7l-6-3c2-7-7-12 4-24l1-2z"/><path fill="#8a6a3a" d="m308 1007 1-2z"/><path fill="#b8a0e0" d="M161 887q5-7 13-7c12 1 7 9 4 13l-11 6z"/><path fill="#3d3d3b" d="M174 884q1 3-3 5l-2 1c-3-3 2-4 4-5z"/><path fill="#9c9a9b" d="M311 1004q2-4 6-4h2l-1 4c-6 3-1 1-7 0"/><path fill="#8a6a3a" d="M1313 299c14-9 42-18 58-21a132 132 0 0 1 101 20q27 20 44 48c-24-8-35-11-61-10l-3 1c-16 0-33 7-48 13-12-8-28-23-37-30-10-6-42-16-54-21"/><path fill="#634314" d="m1452 337 3-1z"/><path fill="#f2f0ea" d="m1496 650 14 25 25 49c-30 20-51 40-75 67l-12 16c-5-37-7-89-10-127h40zM91 940c12 4 11 6 10 17h1c9-3 6-3 15-3 4 9 16 26 22 35-10 5-11 5-6 15l5 10 21 67 8 27-45-25-7-26-3 1-47-41 7-15 1-4q11-28 18-58"/><path fill="#f2f0ea" d="m138 1014 21 67 8 27-45-25-7-26-6-21-4-13c4-3 27-7 33-9"/><path fill="#b8a0e0" d="m159 1081 8 27-40-21z"/><path fill="#f2f0ea" d="M102 957c9-3 6-3 15-3 4 9 16 26 22 35-10 5-11 5-6 15l5 10c-6 2-29 6-33 9l-4-12-1-1c-2-15 2-38 2-53"/><path fill="#b8a0e0" d="m133 1004 5 10c-6 2-29 6-33 9l-4-12-1-1 16 1c7-5 8-7 17-7m-59 20q14-2 27-7l1 4c2 8 10 30 10 37-5-3-33-29-38-34"/><path fill="#3d3d3b" d="M101 957c0 15-4 38-2 53l1 1 4 12 4 13 6 21-3 1c0-7-8-29-10-37l-1-4v-1l-4-10c2-8 2-44 4-49"/><path fill="#8a6a3a" d="m1346 909 31-26q19-17 40-33a995 995 0 0 0-97 191c-3 7-5 17-9 22h-1v-2l-10-90-1-3-1-18 46-40z"/><path fill="#f2f0ea" d="M116 936c4-8 10-15 8-24-2-7-5-6-8-11q5 0 14-3c9 21 36 89 50 102 10 10 26 17 39 25l1-2 1 1 49 31-2 2 5 3 2 1-5 18-5 12v1q-3 0-5-2l-1-1-13-9-74-56c-9-5-9-6-15-15-8-8-33-46-37-56l-3-6z"/><path fill="#b8a0e0" d="m273 1060 2 1-5 18-5 12v1q-3 0-5-2l-1-1-13-9c6-3 8-3 11-8l6-7 2 2 2-3 1 1c0 4 3 0 3-1z"/><path fill="#868586" d="m260 1090 5 1v1q-3 0-5-2"/><path fill="#b8a0e0" d="m172 1002 3-1q3-1 4 3 3 6-1 10-2 5-5 7l-1 3c-9-5-9-6-15-15l4-4q2-2 3 1l2 2c6 0-5-5 6-6"/><path fill="#868586" d="m172 1002 3-1q3-1 4 3l-6 11 2-6q2-3 1-7c-1-1-3 6-4 5h1zm-11 3q2-2 3 1c0 1 0 6-2 5l-1-4zm12 16q-1-4 3-5l2-2q-2 5-5 7"/><path fill="#9c9a9b" d="M117 947q6-4 14-6c8 1 4 2 5 6h1c1 0 2-5 4-5 2 4-10 13-13 14-5 1-4-2-8-3z"/><path fill="#3d3d3b" d="m220 1023 1 1 38 24-2 2-37-24-1-1z"/><path fill="#8a6a3a" d="m220 1023 1 1-1 2-1-1z"/><path fill="#3d3d3b" d="m259 1048 11 7-2 2-11-7z"/><path fill="#8a6a3a" d="M391 1246c17-2 129-11 137-7l1 2c-7 5-23 12-31 17-32 19-68 35-100 54l-18-13c-1-12-4-41 1-51z"/><path fill="#e0b84e" d="m1295 952 2 15 2 1 1 3-1-1-1 1q4 45 10 89c1 14-2 20-6 33l-71-84c15-15 48-43 64-57"/><path fill="#463a13" d="m1297 967 2 1 1 3-1-1-1 1z"/><path fill="#8a6a3a" d="m1177 310-3-4c-17-36 2-76 35-94 35-19 70-18 107-9l7 2h-8c-24-2-59 3-78 18-19 16-29 52-30 75l-1 16-10 7-2 2h-2c-2 0-12-10-15-13"/><path fill="#e0b84e" d="M1433 484c11-1 34 0 45 3 41 11 59 32 80 67q-17-13-35-22l-10-4-6-14-15 13c-31-2-54 9-81 21 0-15 1-47-1-60z"/><path fill="#8a6a3a" d="M421 1189c19-4 25-4 45-1l56 46-78 6-38 2c0-7-2-27-4-35 3-12 8-15 19-18m795-877h-6q-2-5-1-11c5-79 45-99 118-92l10 2h-1l-28 8c-40 17-60 49-69 90l-20 2z"/><path fill="#f2f0ea" d="M191 1071h2c3 4 12 10 17 14l6 4 4 3 1 1-1 2 38 24 18 6 16 4h1l27 9h2l5 2 1 1q-6 10-15 16h-1l-2-2-31-9-11-4c-11-3-96-29-100-34l-4-18-2-5-1-2 30-10z"/><path fill="#868586" d="M191 1071h2c3 4 12 10 17 14l6 4 4 3-2 2c-6-6-16-11-22-17l-2-1c-18 12-8 9-30 14l-2-5-1-2 30-10zm136 69 1 1q-6 10-15 16h-1zm-35-11h1c-2 3-9 10-12 11 0-2 9-10 11-11m28 9h2l-11 9z"/><path fill="#8a6a3a" d="m220 1092 1 1-1 2-2-1z"/><path fill="#868586" d="M288 1144c1-1 9-11 11-11 0 2-9 11-11 12z"/><path fill="#9c9a9b" d="M293 1145q3-6 9-9zm25 0c2 2-2 4-3 5l-1-1z"/><path fill="#f6ea7e" d="m534 1282 20 3c-9 37-19 84-26 122-12-11-23-14-38-20l-5-2-7-4c3-9 23-41 28-51z"/><path fill="#f2f0ea" d="M65 841c-4-1-3 0-5-2 5-3 14-1 18 3l2-1q5 4 8 9l-1 1c7 6 7 8 8 18l-2 26v4l-1 4c0 13-5 58-13 68l-2 1c4 1 0 9-1 11l-5 14c-3-2-10-12-12-15-2-1-7-8-6-11l8-66 1-29c11-5 7-22 5-32z"/><path fill="#9c9a9b" d="M53 971c4 3 18 1 24 1 4 1 0 9-1 11l-5 14c-3-2-10-12-12-15-2-1-7-8-6-11"/><path fill="#b8a0e0" d="m59 982 7 1 7 7-2 7c-3-2-10-12-12-15"/><path fill="#868586" d="M62 904c2-5 2-4 8-5 7-1 8-6 14-5v2l-3 5c-8 4-10 5-19 3"/><path fill="#8a6a3a" d="M80 841q5 4 8 9l-1 1-9-9z"/><path fill="#dbd1b7" d="M84 894q5-1 9 1v4q-3-3-9-3z"/><path fill="#f2f0ea" d="m275 943 1-1 1 1h10l4 1h12l4 1 12 2h4l2 1h6l2 1 3 1h2l10 1 6 2h1l4 1h1l3 1 9 1h1l3 2h2l5 1h1l19 30-1 1-4-1-1 1h-15l-5-1h-5l-1 1-3-1h-6l-4-1-1 1-4 1-6-2h-21c-7 0-7-1-14-6l-38-25-2 2-9-6-1-1-2-4-1-1c0-2 14-4 16-4"/><path fill="#f2f0ea" d="m338 950 10 1 6 2h1l4 1h1l3 1 9 1h1l3 2h2l5 1h1l19 30-1 1-4-1-1 1h-15l-5-1h-5l-1 1-3-1h-4c-8-16-15-26-26-39"/><path fill="#f2f0ea" d="m363 955 9 1h1l3 2h2l5 1h1l19 30-1 1-4-1-1 1h-15z"/><path fill="#f2f0ea" d="m378 958 5 1h1l19 30-1 1-4-1c-4-9-14-23-20-31"/><path fill="#9c9a9b" d="M383 959h1l19 30-1 1zm-7-1h2c6 8 16 22 20 31l-1 1z"/><path fill="#868586" d="M372 956h1c4 9 15 23 20 32v1c-3 0-20-29-21-33m-5 2c8 5 14 23 20 30q-4-1-5-4z"/><path fill="#f2f0ea" d="m354 953 4 1h1l3 1 19 35-5-1h-5l-16-29q-5-4-2-7"/><path fill="#868586" d="m360 954 3 1 19 35-5-1 2-2z"/><path fill="#868586" d="m355 953 4 1c-1 5 17 29 16 33h-1zm-7-2 6 2q-3 3 2 7l16 29-1 1q-11-21-23-39m19 38c-1-1-23-39-23-36h2q13 17 22 36z"/><path fill="#f2f0ea" d="m275 943 1-1 1 1h10l4 1h12l-1 3c5 6 23 33 26 41h-2c-7 0-7-1-14-6l-38-25-2 2-9-6-1-1-2-4-1-1c0-2 14-4 16-4"/><path fill="#9c9a9b" d="M302 947c5 6 23 33 26 41h-2c0-6-21-33-25-41z"/><path fill="#868586" d="M291 948c7 5 21 27 24 35l-4-6z"/><path fill="#3d3d3b" d="m264 951 10 6-2 2-9-6z"/><path fill="#b8a0e0" d="m287 943 4 1q-3 1 0 4-3-2-4-5"/><path fill="#8a6a3a" d="M298 944h5l-1 3h-1z"/><path fill="#868586" d="m260 948 4 3-1 2-1-1z"/><path fill="#9c9a9b" d="m295 948 2-1 25 38c-6-3-19-32-27-37"/><path fill="#868586" d="M283 950q2 0 2 3-2 0-2-3"/><path fill="#f2f0ea" d="M319 947h4l2 1h6l2 1 3 1h2c11 13 18 23 26 39h-2l-4-1-1 1-4 1-6-2v-2z"/><path fill="#f2f0ea" d="m333 949 3 1h2c11 13 18 23 26 39h-2l-4-1q-7-15-17-28z"/><path fill="#868586" d="M336 950h2c11 13 18 23 26 39h-2c-9-17-16-24-26-39"/><path fill="#9c9a9b" d="M319 947h4v2c7 8 23 36 30 41l-6-2v-2zm12 1 2 1 8 11q10 13 17 28l-1 1q-7-15-17-27z"/><path fill="#868586" d="M325 948h2c4 7 25 31 25 37h-1s-14-22-17-24zm19 40-25-35h1l25 34 2 1zm-33-40c4 2 22 30 27 36-6-3-23-29-27-36"/><path fill="#f2f0ea" d="m1147 653 29-1 1 64c-16-7-41-8-58-14l-10-2-19 23-5 3-4 7-2 1c2-7 16-29 20-36q23-23 48-45"/><path fill="#e0b84e" d="m1153 863 7-2 7-2 4-1 1 12c3 3 1 4 2 6 1 6 0 26-1 32h-2l-14 5-30 15-49 24 36-42z"/><path fill="#8a6a3a" d="M1172 870c3 3 1 4 2 6 1 6 0 26-1 32h-2z"/><path fill="#f6ea7e" d="M654 1134v2a1296 1296 0 0 1-92 145l-5-1c4-7 13-17 15-23 5-25-4-28 23-38l-1-5c-6-26-3-36 24-42l2-21c13-9 20-4 34-18"/><path fill="#f2f0ea" d="M143 1021q8-2 12-7l1 2c9 9 12 7 21 15l12 9-1 1 5 6c5 10 8 15 0 24h-2v2l-30 10c0-6-6-24-9-31l-2-9z"/><path fill="#f2f0ea" d="M143 1021q8-2 12-7l1 2c9 9 12 7 21 15l12 9-1 1c-5-2-2 1-1 3h-3c-4-1-1 11-7 0l-3-4c-5 0-5 9-11 6l-2-2q-3 5-9 8l-2-9z"/><path fill="#9c9a9b" d="m177 1031 12 9-1 1c-5-2-2 1-1 3h-3c-4-1-1 11-7 0l-3-4c-5 0-5 9-11 6l-2-2q-3 5-9 8l-2-9 10-7 2-1c-1 3 0 11 5 8 3-1-2-2-2-2-1-3 1-3-2-6z"/><path fill="#f2f0ea" d="M187 1044c-1-2-4-5 1-3l5 6c5 10 8 15 0 24h-2c-9-5-15-21-17-31l3 4c6 11 3-1 7 0z"/><path fill="#0a0e1c" d="M187 1044c-1-2-4-5 1-3l5 6c5 10 8 15 0 24h-2c-9-5-15-21-17-31l3 4c6 11 3-1 7 0h2c-7 8-5 6-4 12 6 21 21 9 10-5z"/><path fill="#b8a0e0" d="M162 1051h1zh-2z"/><path fill="#f2f0ea" d="m350 1148 2 1 2 1 3 1 6 2 2 1 29 11 21 7 28 11-23 4-9 3-15-5-15-5-45-15c3-2 13-13 14-17"/><path fill="#868586" d="m350 1148 2 1c-4 7-9 10-14 17l-2-1c3-2 13-13 14-17m4 2 3 1-13 14h-1c0-3 10-11 11-14zm9 3 2 1c-1 1-9 10-11 9h1-1z"/><path fill="#b8a0e0" d="M414 1175c1 0 9 0 5 3l-5 5-2 2v-1c-1-2 3-2 2-9"/><path fill="#868586" d="M357 1154c1 3-8 11-10 13 0-4 7-10 10-13m11 5c1 3-4 7-6 9-1-3 4-7 6-9m-5 0c1 3-4 7-7 9 0-3 5-6 7-9m26 7q-1 4-5 7l1-4zm9 6q0 4-3 6-1-2 1-3z"/><path fill="#e0b84e" d="M1473 530h16l-34 29q-12 11-27 21l-15-30q28-15 60-20"/><path fill="#8a6a3a" d="M636 1103c19-7 35-7 51 8l7 9 1 1q3 5 3 8l-34 17-14 7c9-23 17-42-14-50"/><path fill="#634314" d="m664 1146 11-5z"/><path fill="#f2f0ea" d="M1116 548q-9 0-14-4c-27-22-4-59 28-53 11 2 13 2 10 13l-5 11-1-1-1-1q-7-5-16-3c-13 3-12 26 5 26h2q-2 7-8 12"/><path fill="#8a6a3a" d="M633 1105c16 2 22 7 23 24-11 12-15 12-30 17l-10 5c-10-5-9-4-6-15 7-16 7-21 23-31"/><path fill="#f2f0ea" d="M227 1069c12 9 28 22 41 26l4 1-2 16-2 8-6-2-10-6-31-19-1-1-4-3q7-9 11-20"/><path fill="#9c9a9b" d="m268 1095 4 1-2 16-2 8-6-2-10-6 3-4 1-1c4-7 6-7 12-12"/><path fill="#b8a0e0" d="m255 1108 4-2 3 12-10-6z"/><path fill="#f2f0ea" d="m425 953 1 2 9 18q-5 9-13 17l-1 1h-8q-5 1-9-1l-1-1-19-30h5l2 1h4l4 1 2-1 3-1z"/><path fill="#f2f0ea" d="M384 959h5l2 1h4l4 1q9 16 20 30h-6q-5 1-9-1l-1-1z"/><path fill="#868586" d="m389 959 2 1 16 29c-3-1-16-26-18-30"/><path fill="#8a6a3a" d="m404 990 9 1q-5 1-9-1"/><path fill="#9c9a9b" d="m399 961 2-1c1 6 15 26 20 31h-2q-11-14-20-30"/><path fill="#868586" d="m401 960 3-1c2 3 18 27 18 29l-1-1c-4-5-16-26-20-27"/><path fill="#9c9a9b" d="M412 967c4 2 11 10 13 15-2 0-11-13-13-15m-3-5q2 0 3 3-2 0-3-3m17 7 2 2zM92 934c0-6 1-29 5-32 9 1 5 1 12 3l1 1 1 11h2v-2l-1-16c12 13 14 16 4 32l-3 6-7-2c-2 2-5 0-5 3 0 0 0 5 2 5 1-1-2-6 4-6q4-1 4 5c1-3 2-7 3-1l3 10v3c-9 0-6 0-15 3h-1c1-11 2-13-10-17z"/><path fill="#f2f0ea" d="M92 934c0-6 1-29 5-32 9 1 5 1 12 3l1 1 1 11v11l-19 9zm20-35c12 13 14 16 4 32-5-2 0-9-3-16zm-1 43c1-3 2-7 3-1l3 10c-3 1-16 5-14 2l1-6c3 1 4 3 4-2z"/><path fill="#f2f0ea" d="M100 845c4-2 4-2 8 0h1l5 3 1 1c7 11 2 13 5 25l5 14 2 6c3 5 0 4-5 5l-4-1c-4 1-4 2-8 1v1l-1 5c-7-2-3-2-12-3l2-1c-2-2-5 1-4-7q0-3 3-2v-1q-3-8 0-17c3-1 11-2 10-6-1-9 3-15-3-20q-5 0-5-3"/><path fill="#b8a0e0" d="M98 891c6 3 10 2 13 7l-1 1v1l-1 5c-7-2-3-2-12-3l2-1c-2-2-5 1-4-7q0-3 3-2z"/><path fill="#8a6a3a" d="M98 891c6 3 10 2 13 7l-1 1v1c-5-7-7-3-12-8z"/><path fill="#0a0e1c" d="M97 896c1 0 10 2 9 4h-2l-3 1v-1 1l1-1h1l-1-1q-1-2-5-3"/><path fill="#868586" d="M115 892q4-3 10-4l2 6c3 5 0 4-5 5l-4-1z"/><path fill="#f2f0ea" d="M127 894c3 5 0 4-5 5-7-3 2-4 5-5m-7-2 2-1v1l-1 1h-2z"/><path fill="#b8a0e0" d="m111 898 4-6 3 6c-4 1-4 2-8 1z"/><path fill="#8a6a3a" d="M100 845c4-2 4-2 8 0z"/><path fill="#f2f0ea" d="m189 1040 5 4 30 23 3 2q-4 11-11 20l-6-4c-5-4-14-10-17-14 8-9 5-14 0-24l-5-6z"/><path fill="#b8a0e0" d="m224 1067 3 2q-4 11-11 20l-6-4 1-9c4-9 8-7 13-9"/><path fill="#8a6a3a" d="m543 1251 8 7 12 10c-5 6-5 7-11 9 0 5 2 3 2 5-6 5-30-7-36-10l1-1z"/><path fill="#463a13" d="M550 1262c5 2 3 10 2 14z"/><path fill="#f2f0ea" d="m626 982 14 21-19 12c-4-4-21-19-18-24zm-114 37c8-3 16-10 23-7l1 2q8 9 12 20l-17 5-4 1-4 2zm-184 122 3 1 1 1 4-1 3 1 2 2h1l3 1 3 1 2 1c-1 4-11 15-14 17h-3l-11-5h-1l-8-3q9-6 15-16"/><path fill="#f2f0ea" d="m328 1141 3 1 1 1 4-1-15 18-8-3q9-6 15-16"/><path fill="#868586" d="m332 1143-12 13c-1-2 9-12 11-14z"/><path fill="#f2f0ea" d="M350 1148c-1 4-11 15-14 17h-1c2-4 11-15 15-17"/><path fill="#9c9a9b" d="m348 1147 2 1c-4 2-13 13-15 17h-2q7-10 15-18"/><path fill="#868586" d="m336 1142 3 1c-5 3-12 12-17 17h-1zm6 3 3 1-12 13c0-3 8-9 9-14"/><path fill="#8a6a3a" d="m339 1143 2 2-8 8c-1-1 4-5 6-10"/><path fill="#c8a44e" d="m581 893 1 3q0 10 4 16 3 5 9 6 2 0-1 2-6 5-11 12c-4 6-12-7-12-10-2-8 5-22 10-29"/><path fill="#b8a0e0" d="m1134 707 8 3-3 24q-1 19-7 38h-2l3-52-1-2-3-3z"/><path fill="#868586" d="m1132 718 3-7h1l-3 9z"/><path fill="#f2f0ea" d="M73 810c7 0 14-1 20 5-3 9-2 24-2 34q0 3-3 1-3-5-8-9c-3-4-3-3-1-7q3-6 2-14-2-6-8-10m1028-93c6-4 2-10 10-13l2 1c1 1 3 7 5 8v-1q-3-4-1-7l2 3c4-4-1-2 6-1q2 0 1 2v4c2-4 1-5 5-6l3 1-5 8h-1q-2 3-2-1c-3 1-1 4-3 4l-2-3-2 6h-5l-2 1-1 1-3 1-2 1-2-2c-1 2 2 1-4 4q-1-6 1-10"/><path fill="#f2f0ea" d="M1101 717c6-4 2-10 10-13l2 1c-4 8-8 10-2 19l-3 1-2 1-2-2c-1 2 2 1-4 4q-1-6 1-10"/><path fill="#868586" d="m1111 703 2 1c-4 8-8 10-2 19l-3 1c-3-10-1-12 3-21m20 3 3 1-5 8h-1z"/><path fill="#8a6a3a" d="m1116 721-1-6c2-3 3 4 3 4l1 2z"/><path fill="#868586" d="M1112 722v-7l2 6z"/><path fill="#8a6a3a" d="m1113 709 1 3h-2zm-6-272 4-4c2 1-5 11-6 13q-6 7-16 8l-5 1c-7 1-21 4-25 7-4 0-3 2-6 3h-1c-2-7 26-17 31-17 7 0 18-7 24-11"/><path fill="#b8a0e0" d="M491 943c5-4 5 16 6 21l2 27-15-31-4-9c4-4 5-5 11-8"/><path fill="#8a6a3a" d="m792 1157 4-1 3 1c1 4-9 23-13 27l-1-1-2-4-1-3c-4-11 0-14 9-19z"/><path fill="#634314" d="M597 1430c12-13 12-6 17 5-13 16-6 24-17 3z"/><path fill="#4f300e" d="M597 1430v8z"/><path fill="#b8a0e0" d="M141 999v-4c3-3 13 17 14 19q-4 5-12 7v-5c-4-2-3-4-6-8-3-6-6-11 4-9"/><path fill="#f2f0ea" d="M137 1008c-3-6-6-11 4-9q6 4-1 7zm-6-119c-1-2-10-21-2-22 9-1 14 24 5 26q2 5 0 8s-6-9-3-12m385 385 16 8-9 14-4 7c-3-11-5-17-3-29M149 843c12 0 12 4 15 16q0 3-3 6c-1 0-5 4-6 3-2-10-7-15-6-25"/><path fill="#4f300e" d="M400 1224c3 1 4 16 3 18l-19 2c2-4 12-13 15-18z"/><path fill="#634314" d="M471 1407q1-12 6-23l6 1h2l5 2v1c-1 5-4 4-8 8l-1 2z"/><path fill="#f2f0ea" d="m65 841 2 3-2 1c2 7 6 27-4 29 0-5-3-31 0-32z"/><path fill="#8a6a3a" d="m65 841 2 3-2 1-4-3zm455 562c9 6 8 5 5 16q-3 9-11 13l5-26z"/><path fill="#634314" d="m761 1275 3 7q-6 7-17 7c-6 0 1-9 3-11q4-3 11-3"/><path fill="#f2f0ea" d="M73 814c8 2 6 12 6 19h-2c0 1-4 3-4 1q-2-9 0-20m1013-85c6-2 14-18 17-19 2 0-2 6-2 7q-2 4-1 10l-5 1-1-2-2 2-8 4z"/><path fill="#8a6a3a" d="M1101 717q-2 4-1 10c-2-3-5-10 1-10"/><path fill="#4f300e" d="m876 617 11 5c9 2 22-5 27-13l-1 3c-8 13-25 15-37 7z"/><path fill="#8a6a3a" d="M1105 449c8-9 9-13 12-24 1 7-5 22-7 29z"/><path fill="#4f300e" d="M1963 745q9-15 29-13l-5 2c-16 3-11 0-24 11"/><path fill="#c8a44e" d="m1813 232 4 1c-5 7-7 9-15 12v-2c6-4 8-4 11-11m70 149c8 0 8-1 15-4l1 2-9 4c-1 0-11 0-9-3z"/><path fill="#3d3d3b" d="M1890 383c-1 0-11 0-9-3l2 1z"/><path fill="#c8a44e" d="m1081 1674 4 2-6 13z"/><path fill="#8a6a3a" d="m867 607 1 1q3 6 8 9v2q-7-4-10-11z"/><path fill="#f2f0ea" d="M1144 710q5 6 0 13c-3-2 0-8 0-13"/><path fill="#8a6a3a" d="M1802 245c-4 0-11-1-13-5l13 3z"/><path fill="#b8a0e0" d="M135 991q6 1 3 5l-1 1q-8 0-2-6"/><path fill="#c8a44e" d="M1858 860q-8 1 0-3z"/></svg>