<svg xmlns="http://www.w3.org/2000/svg" width="1024" height="1024" preserveAspectRatio="none" style="display:block" viewBox="0 0 2048 2048"><path fill="#f8ec73" d="M959 360a827 827 0 0 1 447 217l6 5c8 8 19 27 26 37 40 58 57 111 66 181-18 19-40 43-59 61a782 782 0 0 1-338 186q-57 14-114 25l-18 3c9 15 85 159 84 163v2c4 2 21 37 25 44l40 76 36 70c-51 34-109 67-167 89q-39 14-79 24c-67 18-132-3-182-50-1-10 1-27 1-38l4-104 9-236-31-2c-93-9-196-36-255-113-3-10-3-37-3-49 42 26 79 42 130 45q65 4 126-19c8-3 22-7 29-13-14-16-57-38-78-44-74-23-139-13-206 21a441 441 0 0 1 10-71c116-36 162-44 275 12v-42c-48-17-130-34-181-24-25 5-70 32-92 46 7-33 22-72 38-103a830 830 0 0 1 451-399"/><path fill="#0a0e1c" d="m765 1341 2-97q0-33 3-66 2-14 8-27 3-9 12-12c20-6 28 12 42 18 13 7 24-36 43-41 23-5 155 104 183 122h1v2c-18 7-44 14-63 20l-39 33c-18 11-37 34-55 43-27 13-73 13-100 3l-10-5z"/><path fill="#8a6a3a" d="M792 1334c-5-30 25-56 52-60l28-5c6-2 13-9 20-12 33-15 71-6 104 3l-39 33c-18 11-37 34-55 43-27 13-73 13-100 3z"/><path fill="#f2f0ea" d="m874 1161 12 2 2-1c7 2 33 11 40 15h3l23 11c-4 2-17 7-21 7l-2 1-33 12-3 1c-4 0-30 10-34 12h-3l-6-34 2-2 15-18z"/><path fill="#f2f0ea" d="M888 1162c7 2 33 11 40 15h3l23 11c-4 2-17 7-21 7l-2 1-33 12c-4-3-9-39-10-46"/><path fill="#f2f0ea" d="m931 1177 23 11c-4 2-17 7-21 7z"/><path fill="#4b4946" d="M928 1177h3l2 18-2 1z"/><path fill="#8a6a3a" d="m886 1163 2-1c1 7 6 43 10 46l-3 1-3-13-1-4c-1-6-6-25-5-29m-34 24 2-2c1 8 4 29 7 36h-3z"/><path fill="#f2f0ea" d="m816 1185 3 1c11 0 18 7 33 1l6 34c-6 4-23 8-31 11l-1 1-30 9c-4-20-9-54 20-57"/><path fill="#f2f0ea" d="M819 1186c11 0 18 7 33 1l6 34c-6 4-23 8-31 11l-6-32z"/><path fill="#4b4946" d="m816 1185 3 1 2 14 6 32-1 1q-4-25-10-48"/><path fill="#c8a44e" d="m462 903 16-8c89-46 178-39 265 10 0 16-2 45-1 59-14-16-57-38-78-44-74-23-139-13-206 21z"/><path fill="#0a0e1c" d="M802 1339c27 10 73 10 100-3 18-9 37-32 55-43l121 78 5 3h-1l-8-2c-112-35-224-9-297 87z"/><path fill="#8a6a3a" d="M892 915c-15-78-7-142 37-210 52-79 140-127 231-144q108-20 212 21 23 7 45 19c24 267-246 431-483 339l-37-15q-4-3-5-10"/><path fill="#0a0e1c" d="M1211 592c50-2 112 15 160 26 10 90-23 163-85 226q-88 93-217 95c-51 1-112-10-163-19 0-87 36-167 94-232 55-61 130-91 211-96"/><path fill="#f2f0ea" d="m1204 649 51 3 79 8-25 65c-14 36-22 59-50 88-59 61-122 85-206 87l-55-3c-34-3-33-7-66 5 5-47 26-85 52-123 20-29 45-65 75-85 41-27 96-41 145-45"/><path fill="#0a0e1c" d="M1119 700a75 75 0 1 1 16 148 75 75 0 0 1-16-148"/><path fill="#c8a44e" d="m833 810 16 27 30 57c2 4 10 19 13 21q1 7 5 10c8 18 77 144 76 149v1c-74 11-151 28-226 40q3-97 9-195 0-16 2-31v44l-1 68c11-15 19-24 33-37z"/><path fill="#0a0e1c" d="m760 1030 19 10 35 14c8 4 18 8 22 15 6 9 9 17-1 23l-19 6c-42 9-43-8-51-43l-1-4zm64-11c22-1 51 24 70 38l-7 9c-8 5-19 9-27 2s-35-41-36-49m-34-283c75-93 183-182 300-214 116-32 193-11 296 47l9 5-2 1-9-5q-38-17-80-26c-71-13-150-3-218 22a505 505 0 0 0-220 194c-6 8-29 40-33 48q-23-36-43-72"/><path fill="#8a6a3a" d="m1395 574 4 3-6-2z"/><path fill="#f2f0ea" d="M1663 1531c97-29 166-29 257 20q80 43 128 119v378H824c18-8 49-18 68-25q63-22 122-51a2454 2454 0 0 0 617-410z"/><path fill="#c8a44e" d="m1505 800 13-27c6-13 46-76 66-63 13 8 20 60 21 76 7 89-12 186-70 256-26 30-50 45-87 57-6 4-42 125-53 143-5 8-17 16-25 23l-46 40c-11 9-49 36-55 46l-3 8-16 51-33 105-112 364c21-33 53-65 83-91a1364 1364 0 0 1 474-256l-32 31-82 72a2454 2454 0 0 1-657 389c-19 7-50 17-68 25H474c85-65 230-113 333-145 39-12 85-26 125-35l75 56-62-279 40-25q116-78 210-181c26-29 45-56 70-86l-43 34-62 43-36-70-40-76c-4-7-21-42-25-44v-2c1-4-75-148-84-163l18-3q57-11 114-25c127-33 243-97 338-186 19-18 41-42 59-61z"/><path fill="#0a0e1c" d="M1505 801c6-4 18-16 24-22q19-17 41-32c5 81 1 151-56 216-9 12-25 26-38 33 0-5 10-44 12-53l14-96c1-8 1-41 3-46"/><path fill="#8a6a3a" d="M920 360c3-2 26-2 30-1l-23 3a933 933 0 0 0-540 369c-48 70-86 159-68 246 18 89 82 141 149 194 24 19 52 40 72 64l5 6-4-8c-38-71-76-151-81-233 59 77 162 104 255 113l31 2-9 236-4 104c0 11-2 28-1 38-61-60-124-154-170-226l3 10c18 62-45 124-74 174q-28 49-14 102c13 42 39 63 75 83-59-12-114-47-131-108-26-81 69-142 64-215-12-169-249-147-344-244-124-128-38-302 62-409q47-49 101-88a1159 1159 0 0 1 616-212"/><path fill="#c8a44e" d="M572 0h952c11 46 13 89-5 134-39 96-136 157-234 179-67 14-138 27-207 26-6 0-15 1-19-1 88-32 202-102 190-212-10-84-117-106-188-95-104 15-197 101-179 213 6 35 21 70 50 91l-15-2C757 303 537 198 572 0"/><path fill="#c8a44e" d="M392 0h30c-39 189 219 302 367 329 27 4 77 16 104 15l-1 2-27 2q-23 3-47 3-74 3-152-4c-131-11-353-50-345-224 2-47 36-94 71-123"/><path fill="#8a6a3a" d="m1055 339 4-1c4 2 13 1 19 1z"/><path fill="#4b4946" d="m893 344 5 1-4 1h-2z"/><path fill="#c8a44e" d="M1050 344c256 10 545 72 730 264 139 144 103 294-35 420q-32 29-67 53c-62 44-121 77-128 165-3 40 17 76 40 107q14 17 26 35c22 39 25 89-11 121-49 42-119 33-173 7 40 1 86-2 116-32 37-36 8-92-22-121-37-35-66-59-65-113q0-26 11-50c22-49 91-108 125-152 54-70 83-156 60-245q-18-62-57-115-27-41-62-77a1055 1055 0 0 0-446-255c-8-2-37-9-44-12z"/><path fill="#b8a0e0" d="M1082 112c38 0 52 27 45 61-13 67-89 140-157 145-25 0-44-14-46-40-2-36 20-74 42-99 29-32 71-63 116-67"/><path fill="#0a0e1c" d="M1075 118c73-7 46 79 20 112-30 38-68 73-118 82-72 6-47-76-20-111 30-38 68-74 118-83"/><path fill="#b8a0e0" d="M1076 122c65-4 41 68 20 100-25 37-74 80-120 86q-17 2-29-7c-32-27 1-82 20-106 25-32 68-68 109-73"/><path fill="#f2f0ea" d="M567 917a250 250 0 0 1 163 45c-26 13-61 20-89 26 1-20-2-33-17-47q-10-6-22-8-18-2-32 10c-13 11-16 24-17 41-39-10-54-18-88-37 37-18 60-26 102-30"/></svg>